<?xml version="1.0" standalone="no"?>
<!DOCTYPE svg PUBLIC "-//W3C//DTD SVG 20010904//EN"
 "http://www.w3.org/TR/2001/REC-SVG-20010904/DTD/svg10.dtd">
<svg version="1.0" xmlns="http://www.w3.org/2000/svg"
 width="5354.000000pt" height="3000.000000pt" viewBox="0 0 5354.000000 3000.000000"
 preserveAspectRatio="xMidYMid meet">
<metadata>
Created by potrace 1.13, written by Peter Selinger 2001-2015
</metadata>
<g transform="translate(0.000000,3000.000000) scale(0.100000,-0.100000)"
fill="#000000" stroke="none">
<path d="M3200 16790 l0 -30 -155 0 -155 0 0 -35 0 -35 -95 0 -95 0 0 -30 0
-30 -65 0 -65 0 0 -30 0 -30 -60 0 -60 0 0 -30 c0 -27 -3 -30 -30 -30 -28 0
-30 -3 -30 -35 0 -33 -2 -35 -35 -35 -32 0 -35 -2 -35 -30 0 -27 -3 -30 -30
-30 -27 0 -30 -3 -30 -30 0 -27 -3 -30 -30 -30 -27 0 -30 -3 -30 -30 0 -28 -3
-30 -35 -30 -33 0 -35 -2 -35 -35 0 -32 -2 -35 -30 -35 l-30 0 0 -60 0 -60
-30 0 -30 0 0 -65 0 -65 -30 0 -30 0 0 -60 0 -60 -35 0 -35 0 0 -130 0 -130
35 0 c32 0 35 -2 35 -30 l0 -30 125 0 125 0 0 -30 0 -30 310 0 310 0 0 30 c0
28 3 30 35 30 l35 0 0 95 0 95 30 0 30 0 0 65 0 65 30 0 c27 0 30 3 30 30 l0
30 65 0 65 0 0 30 0 30 60 0 60 0 0 30 0 30 190 0 190 0 0 -30 0 -30 65 0 65
0 0 -30 0 -30 60 0 60 0 0 -65 0 -65 30 0 30 0 0 -155 0 -155 35 0 35 0 0
-125 0 -125 -35 0 c-32 0 -35 -2 -35 -30 l0 -30 -280 0 -280 0 0 -35 0 -35
-190 0 -190 0 0 -30 0 -30 -125 0 -125 0 0 -30 0 -30 -95 0 -95 0 0 -35 0 -35
-60 0 -60 0 0 -30 0 -30 -65 0 -65 0 0 -30 c0 -27 -3 -30 -30 -30 -27 0 -30
-3 -30 -30 0 -27 -3 -30 -30 -30 -28 0 -30 -3 -30 -35 0 -33 -2 -35 -35 -35
-32 0 -35 -2 -35 -30 0 -27 -3 -30 -30 -30 -27 0 -30 -3 -30 -30 0 -27 -3 -30
-30 -30 -27 0 -30 -3 -30 -30 0 -27 -3 -30 -30 -30 l-30 0 0 -65 0 -65 -35 0
-35 0 0 -65 0 -65 -30 0 -30 0 0 -90 0 -90 -30 0 -30 0 0 -345 0 -345 30 0 30
0 0 -95 0 -95 30 0 30 0 0 -65 0 -65 35 0 35 0 0 -60 0 -60 30 0 c28 0 30 -3
30 -35 0 -32 2 -35 30 -35 27 0 30 -3 30 -30 0 -27 3 -30 30 -30 27 0 30 -3
30 -30 l0 -30 65 0 65 0 0 -30 0 -30 65 0 65 0 0 -35 0 -35 60 0 60 0 0 -30 0
-30 410 0 410 0 0 30 0 30 90 0 90 0 0 35 0 35 65 0 65 0 0 30 0 30 65 0 65 0
0 30 c0 27 3 30 30 30 27 0 30 3 30 30 l0 30 60 0 60 0 0 35 c0 33 2 35 35 35
32 0 35 2 35 30 0 27 3 30 30 30 27 0 30 3 30 30 l0 30 65 0 65 0 0 -60 0 -60
30 0 c28 0 30 -3 30 -35 0 -32 2 -35 30 -35 27 0 30 -3 30 -30 0 -27 3 -30 30
-30 27 0 30 -3 30 -30 0 -28 3 -30 35 -30 32 0 35 -2 35 -30 0 -27 3 -30 30
-30 28 0 30 -3 30 -35 0 -32 2 -35 30 -35 27 0 30 -3 30 -30 l0 -30 65 0 65 0
0 30 0 30 60 0 60 0 0 35 c0 33 2 35 35 35 32 0 35 2 35 30 0 27 3 30 30 30
27 0 30 3 30 30 0 27 3 30 30 30 27 0 30 3 30 30 0 27 3 30 30 30 28 0 30 3
30 35 0 33 2 35 35 35 32 0 35 2 35 30 l0 30 60 0 60 0 0 30 c0 28 3 30 35 30
32 0 35 2 35 30 0 27 3 30 30 30 l30 0 0 65 0 65 -30 0 -30 0 0 65 0 65 -35 0
c-32 0 -35 2 -35 30 0 27 -3 30 -30 30 l-30 0 0 60 0 60 -30 0 -30 0 0 65 0
65 -35 0 -35 0 0 970 0 970 -30 0 -30 0 0 220 0 220 -30 0 -30 0 0 65 0 65
-30 0 -30 0 0 65 0 65 -35 0 -35 0 0 60 0 60 -30 0 c-27 0 -30 3 -30 30 0 27
-3 30 -30 30 -28 0 -30 3 -30 35 l0 35 -65 0 -65 0 0 30 c0 27 -3 30 -30 30
-27 0 -30 3 -30 30 l0 30 -95 0 -95 0 0 30 0 30 -60 0 -60 0 0 35 0 35 -160 0
-160 0 0 30 0 30 -345 0 -345 0 0 -30z m750 -2260 c0 -28 3 -30 35 -30 l35 0
0 -65 0 -65 -35 0 -35 0 0 -315 0 -315 -30 0 -30 0 0 -60 0 -60 -30 0 -30 0 0
-65 0 -65 -30 0 c-27 0 -30 -3 -30 -30 0 -28 -3 -30 -35 -30 -32 0 -35 -2 -35
-30 0 -27 -3 -30 -30 -30 -27 0 -30 -3 -30 -30 l0 -30 -65 0 -65 0 0 -35 0
-35 -185 0 -185 0 0 35 c0 32 -2 35 -30 35 -27 0 -30 3 -30 30 0 28 -3 30 -35
30 -32 0 -35 2 -35 30 0 27 -3 30 -30 30 -27 0 -30 3 -30 30 0 27 -3 30 -30
30 l-30 0 0 285 0 285 30 0 30 0 0 60 0 60 30 0 30 0 0 65 0 65 65 0 65 0 0
30 c0 27 3 30 30 30 28 0 30 3 30 35 l0 35 65 0 65 0 0 30 0 30 155 0 155 0 0
30 0 30 155 0 155 0 0 -30z"/>
<path d="M13180 16790 l0 -30 -155 0 -155 0 0 -35 0 -35 -95 0 -95 0 0 -30 0
-30 -65 0 -65 0 0 -30 0 -30 -60 0 -60 0 0 -30 0 -30 -65 0 -65 0 0 -35 c0
-32 -2 -35 -30 -35 -27 0 -30 -3 -30 -30 0 -27 -3 -30 -30 -30 -27 0 -30 -3
-30 -30 0 -28 -3 -30 -35 -30 -32 0 -35 -2 -35 -30 0 -27 -3 -30 -30 -30 l-30
0 0 -65 0 -65 -30 0 c-27 0 -30 -3 -30 -30 0 -27 -3 -30 -30 -30 l-30 0 0 -65
0 -65 -35 0 -35 0 0 -125 0 -125 -30 0 -30 0 0 -65 0 -65 30 0 c27 0 30 -3 30
-30 l0 -30 125 0 125 0 0 -30 0 -30 315 0 315 0 0 30 c0 27 3 30 30 30 l30 0
0 65 0 65 35 0 35 0 0 60 0 60 30 0 c28 0 30 3 30 35 0 32 2 35 30 35 27 0 30
3 30 30 0 28 3 30 35 30 32 0 35 2 35 30 l0 30 60 0 60 0 0 30 0 30 220 0 220
0 0 -30 0 -30 65 0 65 0 0 -30 c0 -27 3 -30 30 -30 27 0 30 -3 30 -30 0 -27 3
-30 30 -30 l30 0 0 -95 0 -95 30 0 30 0 0 -220 0 -220 -30 0 c-27 0 -30 -3
-30 -30 l0 -30 -280 0 -280 0 0 -35 0 -35 -190 0 -190 0 0 -30 0 -30 -125 0
-125 0 0 -30 0 -30 -95 0 -95 0 0 -35 0 -35 -60 0 -60 0 0 -30 c0 -28 -3 -30
-35 -30 -32 0 -35 -2 -35 -30 l0 -30 -60 0 -60 0 0 -30 c0 -28 -3 -30 -35 -30
-33 0 -35 -2 -35 -35 0 -32 -2 -35 -30 -35 -27 0 -30 -3 -30 -30 0 -27 -3 -30
-30 -30 -27 0 -30 -3 -30 -30 0 -27 -3 -30 -30 -30 l-30 0 0 -65 0 -65 -35 0
c-32 0 -35 -2 -35 -30 0 -27 -3 -30 -30 -30 l-30 0 0 -95 0 -95 -30 0 -30 0 0
-125 0 -125 -35 0 -35 0 0 -220 0 -220 35 0 35 0 0 -125 0 -125 30 0 30 0 0
-65 0 -65 30 0 30 0 0 -60 0 -60 35 0 c32 0 35 -2 35 -30 0 -27 3 -30 30 -30
28 0 30 -3 30 -35 0 -32 2 -35 30 -35 27 0 30 -3 30 -30 0 -27 3 -30 30 -30
27 0 30 -3 30 -30 0 -28 3 -30 35 -30 32 0 35 -2 35 -30 l0 -30 60 0 60 0 0
-35 0 -35 95 0 95 0 0 -30 0 -30 375 0 375 0 0 30 0 30 125 0 125 0 0 35 0 35
65 0 65 0 0 30 c0 27 3 30 30 30 27 0 30 3 30 30 l0 30 65 0 65 0 0 30 c0 27
3 30 30 30 28 0 30 3 30 35 0 32 2 35 30 35 27 0 30 3 30 30 0 28 3 30 35 30
32 0 35 2 35 30 l0 30 60 0 60 0 0 -30 c0 -28 3 -30 35 -30 l35 0 0 -65 0 -65
30 0 c27 0 30 -3 30 -30 0 -27 3 -30 30 -30 27 0 30 -3 30 -30 0 -27 3 -30 30
-30 27 0 30 -3 30 -30 0 -28 3 -30 35 -30 33 0 35 -2 35 -35 0 -32 2 -35 30
-35 27 0 30 -3 30 -30 l0 -30 95 0 95 0 0 30 c0 27 3 30 30 30 28 0 30 3 30
35 0 32 2 35 30 35 27 0 30 3 30 30 0 28 3 30 35 30 32 0 35 2 35 30 0 27 3
30 30 30 27 0 30 3 30 30 l0 30 60 0 60 0 0 35 c0 33 2 35 35 35 32 0 35 2 35
30 0 27 3 30 30 30 27 0 30 3 30 30 0 27 3 30 30 30 27 0 30 3 30 30 0 28 3
30 35 30 l35 0 0 95 0 95 -35 0 c-33 0 -35 2 -35 35 0 32 -2 35 -30 35 l-30 0
0 60 0 60 -30 0 c-27 0 -30 3 -30 30 0 28 -3 30 -35 30 l-35 0 0 95 0 95 -30
0 -30 0 0 1070 0 1070 -30 0 -30 0 0 125 0 125 -30 0 -30 0 0 60 0 60 -35 0
-35 0 0 65 0 65 -30 0 c-27 0 -30 3 -30 30 0 27 -3 30 -30 30 -27 0 -30 3 -30
30 0 28 -3 30 -35 30 -33 0 -35 2 -35 35 0 32 -2 35 -30 35 -27 0 -30 3 -30
30 l0 30 -60 0 -60 0 0 30 0 30 -65 0 -65 0 0 30 0 30 -95 0 -95 0 0 35 0 35
-155 0 -155 0 0 30 0 30 -315 0 -315 0 0 -30z m750 -2545 l0 -315 -30 0 -30 0
0 -125 0 -125 -30 0 -30 0 0 -60 0 -60 -30 0 c-28 0 -30 -3 -30 -35 0 -33 -2
-35 -35 -35 -32 0 -35 -2 -35 -30 0 -27 -3 -30 -30 -30 -27 0 -30 -3 -30 -30
0 -27 -3 -30 -30 -30 -27 0 -30 -3 -30 -30 l0 -30 -65 0 -65 0 0 -35 0 -35
-155 0 -155 0 0 35 0 35 -65 0 -65 0 0 30 c0 27 -3 30 -30 30 -27 0 -30 3 -30
30 0 27 -3 30 -30 30 l-30 0 0 65 0 65 -35 0 -35 0 0 250 0 250 35 0 35 0 0
60 0 60 30 0 c28 0 30 3 30 35 0 32 2 35 30 35 27 0 30 3 30 30 0 28 3 30 35
30 32 0 35 2 35 30 0 27 3 30 30 30 28 0 30 3 30 35 l0 35 95 0 95 0 0 30 0
30 125 0 125 0 0 30 0 30 185 0 185 0 0 -315z"/>
<path d="M7590 16725 l0 -35 -90 0 -90 0 0 -30 c0 -28 -3 -30 -35 -30 -32 0
-35 -2 -35 -30 l0 -30 -60 0 -60 0 0 -30 c0 -27 -3 -30 -30 -30 l-30 0 0 -65
0 -65 -35 0 c-32 0 -35 -2 -35 -30 0 -27 -3 -30 -30 -30 l-30 0 0 -65 0 -65
-30 0 c-27 0 -30 -3 -30 -30 0 -28 -3 -30 -35 -30 l-35 0 0 250 0 250 -30 0
c-27 0 -30 3 -30 30 l0 30 -440 0 -440 0 0 -60 0 -60 -30 0 -30 0 0 -1945 0
-1945 30 0 30 0 0 -65 0 -65 505 0 505 0 0 1380 0 1380 30 0 30 0 0 95 0 95
30 0 30 0 0 65 0 65 35 0 c32 0 35 2 35 30 0 27 3 30 30 30 27 0 30 3 30 30
l0 30 60 0 60 0 0 35 0 35 160 0 160 0 0 -35 0 -35 60 0 60 0 0 -30 c0 -28 3
-30 35 -30 l35 0 0 -65 0 -65 30 0 30 0 0 -90 0 -90 30 0 30 0 0 -1415 0
-1415 505 0 505 0 0 1225 0 1225 30 0 30 0 0 220 0 220 30 0 30 0 0 60 0 60
30 0 c28 0 30 3 30 35 0 33 2 35 35 35 32 0 35 2 35 30 0 27 3 30 30 30 27 0
30 3 30 30 l0 30 65 0 65 0 0 35 0 35 125 0 125 0 0 -35 0 -35 60 0 60 0 0
-30 c0 -27 3 -30 30 -30 27 0 30 -3 30 -30 0 -28 3 -30 35 -30 l35 0 0 -65 0
-65 30 0 30 0 0 -1440 0 -1440 30 0 c28 0 30 -3 30 -35 l0 -35 470 0 470 0 0
35 c0 33 2 35 35 35 l35 0 0 1630 0 1630 -35 0 -35 0 0 125 0 125 -30 0 -30 0
0 65 0 65 -30 0 -30 0 0 60 0 60 -30 0 c-27 0 -30 3 -30 30 0 28 -3 30 -35 30
-33 0 -35 2 -35 35 0 32 -2 35 -30 35 -27 0 -30 3 -30 30 l0 30 -65 0 -65 0 0
30 c0 27 -3 30 -30 30 -27 0 -30 3 -30 30 l0 30 -95 0 -95 0 0 35 0 35 -345 0
-345 0 0 -35 0 -35 -60 0 -60 0 0 -30 0 -30 -65 0 -65 0 0 -30 0 -30 -60 0
-60 0 0 -30 c0 -28 -3 -30 -35 -30 -33 0 -35 -2 -35 -35 0 -32 -2 -35 -30 -35
l-30 0 0 -60 0 -60 -30 0 c-27 0 -30 -3 -30 -30 0 -27 -3 -30 -30 -30 l-30 0
0 -65 0 -65 -65 0 -65 0 0 65 0 65 -30 0 -30 0 0 60 0 60 -35 0 c-32 0 -35 2
-35 30 0 27 -3 30 -30 30 -28 0 -30 3 -30 35 0 32 -2 35 -30 35 -27 0 -30 3
-30 30 0 27 -3 30 -30 30 -27 0 -30 3 -30 30 l0 30 -65 0 -65 0 0 30 0 30 -60
0 -60 0 0 35 0 35 -350 0 -350 0 0 -35z"/>
<path d="M20400 16725 l0 -35 -95 0 -95 0 0 -30 0 -30 -60 0 -60 0 0 -30 0
-30 -65 0 -65 0 0 -30 c0 -27 -3 -30 -30 -30 -28 0 -30 -3 -30 -35 0 -33 -2
-35 -35 -35 -32 0 -35 -2 -35 -30 0 -27 -3 -30 -30 -30 -27 0 -30 -3 -30 -30
0 -27 -3 -30 -30 -30 -27 0 -30 -3 -30 -30 0 -27 -3 -30 -30 -30 -28 0 -30 -3
-30 -35 0 -33 -2 -35 -35 -35 -32 0 -35 -2 -35 -30 0 -27 -3 -30 -30 -30 l-30
0 0 -65 0 -65 -30 0 c-27 0 -30 -3 -30 -30 0 -28 -3 -30 -35 -30 l-35 0 0 -60
0 -60 -30 0 -30 0 0 -95 0 -95 -30 0 -30 0 0 -95 0 -95 -30 0 -30 0 0 -125 0
-125 -35 0 -35 0 0 -565 0 -565 35 0 35 0 0 -125 0 -125 30 0 30 0 0 -125 0
-125 30 0 30 0 0 -65 0 -65 30 0 30 0 0 -60 0 -60 35 0 35 0 0 -65 0 -65 30 0
c27 0 30 -3 30 -30 0 -27 3 -30 30 -30 l30 0 0 -65 0 -65 35 0 c32 0 35 -2 35
-30 0 -27 3 -30 30 -30 27 0 30 -3 30 -30 0 -27 3 -30 30 -30 28 0 30 -3 30
-35 0 -32 2 -35 30 -35 27 0 30 -3 30 -30 l0 -30 65 0 65 0 0 -30 c0 -27 3
-30 30 -30 27 0 30 -3 30 -30 l0 -30 65 0 65 0 0 -35 0 -35 95 0 95 0 0 -30 0
-30 155 0 155 0 0 -30 0 -30 190 0 190 0 0 30 0 30 155 0 155 0 0 30 0 30 65
0 65 0 0 35 0 35 60 0 60 0 0 30 0 30 65 0 65 0 0 30 c0 27 3 30 30 30 27 0
30 3 30 30 l0 30 65 0 65 0 0 35 c0 32 2 35 30 35 27 0 30 3 30 30 0 27 3 30
30 30 27 0 30 3 30 30 0 27 3 30 30 30 l30 0 0 65 0 65 35 0 c32 0 35 2 35 30
0 27 3 30 30 30 l30 0 0 65 0 65 30 0 30 0 0 60 0 60 30 0 30 0 0 65 0 65 35
0 35 0 0 60 0 60 30 0 30 0 0 125 0 125 30 0 30 0 0 220 0 220 35 0 35 0 0
220 0 220 -35 0 -35 0 0 220 0 220 -30 0 -30 0 0 125 0 125 -30 0 -30 0 0 95
0 95 -35 0 -35 0 0 65 0 65 -30 0 -30 0 0 60 0 60 -30 0 -30 0 0 65 0 65 -30
0 c-27 0 -30 3 -30 30 0 28 -3 30 -35 30 -32 0 -35 2 -35 30 0 27 -3 30 -30
30 l-30 0 0 65 0 65 -30 0 c-27 0 -30 3 -30 30 l0 30 -65 0 -65 0 0 30 c0 27
-3 30 -30 30 -28 0 -30 3 -30 35 0 32 -2 35 -30 35 -27 0 -30 3 -30 30 l0 30
-65 0 -65 0 0 30 0 30 -60 0 -60 0 0 30 0 30 -95 0 -95 0 0 35 0 35 -440 0
-440 0 0 -35z m500 -755 l0 -30 95 0 95 0 0 -30 0 -30 65 0 65 0 0 -30 c0 -27
3 -30 30 -30 l30 0 0 -65 0 -65 30 0 30 0 0 -125 0 -125 30 0 30 0 0 -220 0
-220 35 0 35 0 0 -440 0 -440 -35 0 -35 0 0 -190 0 -190 -30 0 -30 0 0 -60 0
-60 -30 0 -30 0 0 -65 0 -65 -30 0 -30 0 0 -60 0 -60 -65 0 -65 0 0 -30 0 -30
-65 0 -65 0 0 -35 0 -35 -125 0 -125 0 0 35 0 35 -60 0 -60 0 0 30 c0 28 -3
30 -35 30 -32 0 -35 2 -35 30 0 27 -3 30 -30 30 -27 0 -30 3 -30 30 0 27 -3
30 -30 30 l-30 0 0 95 0 95 -30 0 -30 0 0 125 0 125 -35 0 -35 0 0 725 0 725
35 0 35 0 0 125 0 125 30 0 30 0 0 60 0 60 30 0 c28 0 30 3 30 35 0 32 2 35
30 35 27 0 30 3 30 30 0 28 3 30 35 30 32 0 35 2 35 30 l0 30 95 0 95 0 0 30
0 30 60 0 60 0 0 -30z"/>
<path d="M24790 16725 l0 -35 -60 0 -60 0 0 -30 0 -30 -65 0 -65 0 0 -30 c0
-27 -3 -30 -30 -30 -27 0 -30 -3 -30 -30 0 -27 -3 -30 -30 -30 -28 0 -30 -3
-30 -35 0 -33 -2 -35 -35 -35 -32 0 -35 -2 -35 -30 0 -27 -3 -30 -30 -30 l-30
0 0 -60 0 -60 -30 0 -30 0 0 -65 0 -65 -30 0 c-27 0 -30 -3 -30 -30 0 -28 -3
-30 -35 -30 l-35 0 0 280 0 280 -30 0 c-27 0 -30 3 -30 30 l0 30 -410 0 -410
0 0 -30 c0 -27 -3 -30 -30 -30 l-30 0 0 -2040 0 -2040 505 0 505 0 0 1290 0
1290 30 0 30 0 0 125 0 125 30 0 30 0 0 90 0 90 30 0 c28 0 30 3 30 35 0 33 2
35 35 35 32 0 35 2 35 30 0 27 3 30 30 30 27 0 30 3 30 30 l0 30 60 0 60 0 0
35 0 35 160 0 160 0 0 -35 c0 -32 2 -35 30 -35 27 0 30 -3 30 -30 0 -27 3 -30
30 -30 27 0 30 -3 30 -30 0 -28 3 -30 35 -30 33 0 35 -2 35 -35 0 -32 2 -35
30 -35 l30 0 0 -185 0 -185 30 0 30 0 0 -1320 0 -1320 505 0 505 0 0 1665 0
1665 -35 0 -35 0 0 125 0 125 -30 0 -30 0 0 65 0 65 -30 0 -30 0 0 60 0 60
-30 0 c-27 0 -30 3 -30 30 0 28 -3 30 -35 30 -33 0 -35 2 -35 35 0 32 -2 35
-30 35 -27 0 -30 3 -30 30 0 27 -3 30 -30 30 -27 0 -30 3 -30 30 l0 30 -65 0
-65 0 0 30 0 30 -60 0 -60 0 0 35 0 35 -380 0 -380 0 0 -35z"/>
<path d="M15940 16630 l0 -60 -30 0 -30 0 0 -285 0 -285 30 0 30 0 0 -60 0
-60 690 0 690 0 0 -65 0 -65 -30 0 c-27 0 -30 -3 -30 -30 0 -27 -3 -30 -30
-30 l-30 0 0 -65 0 -65 -30 0 c-27 0 -30 -3 -30 -30 0 -28 -3 -30 -35 -30 -32
0 -35 -2 -35 -30 0 -27 -3 -30 -30 -30 l-30 0 0 -65 0 -65 -30 0 c-27 0 -30
-3 -30 -30 0 -28 -3 -30 -35 -30 l-35 0 0 -60 0 -60 -30 0 c-28 0 -30 -3 -30
-35 0 -32 -2 -35 -30 -35 l-30 0 0 -60 0 -60 -30 0 c-28 0 -30 -3 -30 -35 0
-33 -2 -35 -35 -35 -32 0 -35 -2 -35 -30 0 -27 -3 -30 -30 -30 l-30 0 0 -60 0
-60 -30 0 c-28 0 -30 -3 -30 -35 0 -33 -2 -35 -35 -35 l-35 0 0 -60 0 -60 -30
0 c-27 0 -30 -3 -30 -30 0 -27 -3 -30 -30 -30 l-30 0 0 -65 0 -65 -30 0 c-27
0 -30 -3 -30 -30 0 -28 -3 -30 -35 -30 l-35 0 0 -65 0 -65 -30 0 c-27 0 -30
-3 -30 -30 0 -27 -3 -30 -30 -30 -27 0 -30 -3 -30 -30 0 -27 -3 -30 -30 -30
l-30 0 0 -65 0 -65 -35 0 c-32 0 -35 -2 -35 -30 0 -27 -3 -30 -30 -30 l-30 0
0 -65 0 -65 -30 0 -30 0 0 -95 0 -95 -35 0 -35 0 0 -375 0 -375 35 0 35 0 0
-60 0 -60 60 0 60 0 0 30 0 30 65 0 65 0 0 30 0 30 95 0 95 0 0 30 0 30 90 0
90 0 0 35 0 35 95 0 95 0 0 30 0 30 255 0 255 0 0 30 0 30 125 0 125 0 0 -30
0 -30 250 0 250 0 0 -30 0 -30 125 0 125 0 0 -35 0 -35 95 0 95 0 0 -30 0 -30
60 0 60 0 0 -30 0 -30 65 0 65 0 0 -30 0 -30 60 0 60 0 0 30 c0 28 3 30 35 30
l35 0 0 405 0 405 -35 0 c-33 0 -35 2 -35 35 0 32 -2 35 -30 35 -27 0 -30 3
-30 30 l0 30 -60 0 -60 0 0 30 0 30 -65 0 -65 0 0 30 0 30 -95 0 -95 0 0 35 0
35 -125 0 -125 0 0 30 0 30 -345 0 -345 0 0 65 0 65 30 0 30 0 0 60 0 60 35 0
c32 0 35 2 35 30 0 27 3 30 30 30 28 0 30 3 30 35 0 32 2 35 30 35 l30 0 0 60
0 60 30 0 c28 0 30 3 30 35 0 33 2 35 35 35 l35 0 0 60 0 60 30 0 c27 0 30 3
30 30 0 27 3 30 30 30 28 0 30 3 30 35 0 33 2 35 35 35 l35 0 0 60 0 60 30 0
c27 0 30 3 30 30 0 27 3 30 30 30 l30 0 0 65 0 65 30 0 c27 0 30 3 30 30 0 28
3 30 35 30 l35 0 0 65 0 65 30 0 c27 0 30 3 30 30 0 27 3 30 30 30 27 0 30 3
30 30 0 28 3 30 35 30 l35 0 0 65 0 65 30 0 c27 0 30 3 30 30 0 27 3 30 30 30
l30 0 0 65 0 65 30 0 c27 0 30 3 30 30 0 28 3 30 35 30 l35 0 0 65 0 65 30 0
c27 0 30 3 30 30 0 27 3 30 30 30 l30 0 0 60 0 60 30 0 30 0 0 315 0 315 -30
0 c-27 0 -30 3 -30 30 l0 30 -1350 0 -1350 0 0 -60z"/>
</g>
</svg>
