<?xml version="1.0" standalone="no"?>
<!DOCTYPE svg PUBLIC "-//W3C//DTD SVG 20010904//EN"
 "http://www.w3.org/TR/2001/REC-SVG-20010904/DTD/svg10.dtd">
<svg version="1.0" xmlns="http://www.w3.org/2000/svg"
 width="1943.000000pt" height="1943.000000pt" viewBox="0 0 1943.000000 1943.000000"
 preserveAspectRatio="xMidYMid meet">
<metadata>
Created by potrace 1.13, written by Peter Selinger 2001-2015
</metadata>
<g transform="translate(0.000000,1943.000000) scale(0.100000,-0.100000)"
fill="#000000" stroke="none">
<path d="M0 9715 l0 -9715 9715 0 9715 0 0 9715 0 9715 -9715 0 -9715 0 0
-9715z m18830 0 l0 -9115 -9115 0 -9115 0 0 9115 0 9115 9115 0 9115 0 0
-9115z"/>
<path d="M13105 14304 c-480 -23 -969 -115 -1360 -256 -479 -173 -866 -417
-1210 -762 -624 -624 -942 -1429 -1023 -2584 l-7 -104 -95 106 c-52 58 -100
106 -107 106 -7 0 -16 -6 -20 -14 -4 -7 -53 -63 -109 -122 -56 -60 -188 -203
-293 -319 -106 -115 -198 -211 -205 -213 -6 -1 -72 26 -146 62 -143 68 -273
117 -460 171 -111 32 -114 34 -85 45 244 94 426 190 581 306 173 130 360 363
464 577 157 326 211 708 154 1092 -62 410 -232 741 -538 1039 -323 317 -737
496 -1326 573 -125 16 -310 18 -2522 20 l-2388 4 0 -3871 0 -3870 1367 -2
1368 -3 255 -73 c140 -41 334 -95 430 -122 96 -26 299 -83 450 -125 310 -87
486 -136 610 -170 47 -12 274 -76 505 -140 231 -65 449 -125 485 -135 36 -10
148 -41 250 -69 102 -29 273 -76 380 -106 107 -30 260 -73 340 -95 346 -97
433 -120 455 -120 20 0 786 210 1875 515 205 58 366 102 1400 389 665 185 875
247 874 258 -1 13 36 16 235 21 850 23 1447 183 1969 531 523 348 915 850
1170 1498 95 241 207 616 190 634 -4 3 -103 35 -220 70 -117 36 -377 115 -578
175 -201 61 -437 133 -525 160 -559 170 -759 229 -762 225 -2 -2 -21 -70 -43
-152 -190 -725 -503 -1133 -980 -1278 -282 -85 -694 -94 -960 -20 -357 100
-632 317 -788 622 -140 273 -219 621 -252 1107 -13 193 -13 691 0 865 31 419
125 795 256 1026 278 487 720 744 1284 745 271 1 452 -40 671 -152 170 -87
340 -232 462 -394 73 -97 160 -273 213 -430 29 -87 42 -114 54 -110 15 4 1075
241 1755 392 187 41 341 76 342 77 3 3 -80 230 -126 346 -100 249 -269 557
-422 773 -269 376 -608 677 -985 874 -401 209 -863 334 -1435 388 -158 15
-706 27 -874 19z m-7015 -1855 c446 -40 670 -192 751 -508 28 -106 27 -300 -1
-418 -54 -227 -203 -389 -424 -458 -198 -63 -321 -72 -1028 -74 l-568 -1 0
735 0 735 578 0 c325 0 627 -5 692 -11z m3496 -2369 c88 -96 214 -233 279
-305 65 -71 164 -179 220 -240 56 -60 131 -142 166 -180 35 -39 188 -205 339
-370 151 -165 329 -358 395 -430 115 -126 230 -251 450 -490 123 -134 440
-479 509 -555 96 -105 500 -545 552 -600 65 -70 383 -419 408 -448 11 -12 17
-24 15 -27 -3 -2 -144 -43 -314 -91 -171 -47 -373 -104 -450 -125 -77 -22
-180 -50 -230 -63 -98 -26 -399 -110 -560 -156 -55 -15 -161 -45 -235 -65 -74
-20 -187 -52 -250 -70 -63 -18 -176 -49 -250 -70 -74 -20 -155 -43 -180 -50
-25 -7 -88 -25 -140 -39 -144 -39 -457 -126 -725 -201 -132 -38 -249 -70 -260
-72 -12 -3 -86 13 -165 35 -163 45 -459 127 -625 174 -60 16 -139 38 -175 48
-70 19 -225 62 -790 220 -201 56 -403 112 -450 125 -47 12 -249 69 -450 125
-201 56 -444 124 -540 150 -239 66 -434 121 -439 126 -5 5 75 96 253 288 77
83 160 174 185 201 25 28 94 102 152 165 58 63 155 169 215 235 61 66 189 206
285 310 96 105 304 332 463 505 159 173 312 340 340 370 29 30 149 161 267
290 364 397 697 760 794 865 50 55 141 154 201 220 60 66 143 156 184 200 41
44 120 129 175 189 l99 108 61 -64 c33 -35 132 -142 221 -238z m-3159 -583
c159 -28 255 -56 360 -108 211 -102 342 -286 374 -525 18 -135 -8 -342 -53
-428 -17 -32 -129 -157 -243 -271 -81 -81 -98 -93 -165 -118 -87 -31 -211 -61
-325 -78 -53 -8 -325 -13 -817 -16 l-738 -4 0 786 0 786 758 -4 c632 -4 772
-7 849 -20z"/>
</g>
</svg>
