<?xml version="1.0" standalone="no"?>
<!DOCTYPE svg PUBLIC "-//W3C//DTD SVG 20010904//EN"
 "http://www.w3.org/TR/2001/REC-SVG-20010904/DTD/svg10.dtd">
<svg version="1.0" xmlns="http://www.w3.org/2000/svg"
 width="838.000000pt" height="256.000000pt" viewBox="0 0 838.000000 256.000000"
 preserveAspectRatio="xMidYMid meet">
<metadata>
Created by potrace 1.13, written by Peter Selinger 2001-2015
</metadata>
<g transform="translate(0.000000,256.000000) scale(0.100000,-0.100000)"
fill="#000000" stroke="none">
<path d="M0 2060 l0 -500 4190 0 4190 0 0 500 0 500 -4190 0 -4190 0 0 -500z
m1320 210 c-33 -8 -38 -36 -8 -46 l23 -7 -23 -8 c-15 -6 -22 -17 -22 -34 0
-15 -6 -25 -14 -25 -11 0 -15 17 -18 65 -1 36 1 66 6 68 4 1 25 1 45 -2 32 -4
33 -5 11 -11z m970 0 c-23 -6 -25 -11 -25 -63 0 -47 -2 -57 -17 -57 -14 0 -18
11 -20 58 l-3 57 -52 3 c-29 2 -53 -1 -53 -5 0 -4 9 -19 20 -33 28 -36 26 -68
-6 -76 -14 -4 -30 -2 -37 5 -8 8 -4 11 16 11 32 0 33 4 6 41 -35 50 -24 63 56
69 39 3 86 3 105 1 32 -4 33 -5 10 -11z m245 1 c-4 -3 -14 -6 -23 -6 -14 0
-18 -12 -20 -57 -2 -42 -7 -58 -17 -58 -10 0 -15 16 -17 57 -3 51 -6 58 -28
64 -23 6 -22 6 10 10 43 5 103 -1 95 -10z m625 -15 c0 -21 17 -46 31 -46 4 0
10 16 13 35 4 21 13 35 21 35 19 0 19 0 -4 -47 -11 -21 -22 -46 -25 -55 -6
-19 -36 -25 -36 -8 0 23 -43 100 -56 100 -10 0 -14 -15 -14 -60 0 -47 -3 -60
-15 -60 -12 0 -15 14 -15 64 l0 65 38 3 c51 4 62 0 62 -26z m297 -22 c-5 -52
3 -60 61 -62 50 -1 52 7 12 36 -33 24 -39 56 -14 66 25 10 64 7 64 -5 0 -6 -9
-8 -20 -4 -36 11 -41 -5 -10 -32 33 -27 40 -67 14 -77 -31 -12 -101 -6 -114 9
-7 8 -19 15 -26 15 -8 0 -11 -6 -8 -15 4 -10 0 -15 -14 -15 -18 0 -21 8 -24
65 -1 36 1 66 6 68 4 1 24 1 43 -1 35 -4 35 -5 30 -48z m380 47 c6 0 15 -10
18 -21 3 -11 11 -20 17 -20 5 0 12 9 15 20 3 11 14 20 25 20 17 0 17 -3 -8
-35 -20 -27 -25 -42 -20 -65 5 -25 2 -30 -14 -30 -16 0 -20 7 -20 34 0 45 -30
82 -67 81 -27 0 -28 -1 -28 -58 0 -47 -2 -57 -17 -57 -14 0 -18 11 -20 58 -3
57 -3 57 -37 60 l-34 3 5 -60 c4 -53 2 -61 -13 -61 -14 0 -18 11 -21 65 -1 36
0 66 5 68 7 2 189 1 214 -2z m-3221 -47 c-3 -26 -6 -129 -6 -230 l0 -184 -225
0 -225 0 0 230 0 230 231 0 232 0 -7 -46z m284 31 c0 -8 -4 -15 -10 -15 -5 0
-10 5 -10 10 0 14 -54 12 -68 -2 -33 -33 -1 -88 52 -88 20 0 36 -4 36 -10 0
-14 -82 -12 -102 3 -26 20 -33 63 -14 92 14 21 24 25 66 25 38 0 50 -4 50 -15z
m91 -6 c3 -8 16 -34 28 -57 26 -53 25 -52 2 -52 -10 0 -21 9 -24 20 -3 12 -14
20 -27 20 -13 0 -24 -8 -27 -20 -3 -11 -12 -20 -20 -20 -12 0 -11 5 3 33 31
58 34 67 34 83 0 18 20 14 31 -7z m111 -34 c-4 -53 -3 -55 21 -55 14 0 29 -4
32 -10 4 -6 -11 -10 -39 -10 l-44 0 -4 65 c-3 59 -1 65 17 65 18 0 20 -5 17
-55z m108 -10 c0 -51 -3 -65 -15 -65 -12 0 -15 14 -15 65 0 51 3 65 15 65 12
0 15 -14 15 -65z m272 48 c59 -53 -39 -150 -103 -100 -41 32 -41 73 0 104 23
18 81 16 103 -4z m136 -11 c2 -13 -2 -29 -8 -37 -9 -11 -9 -18 3 -30 32 -32
47 -19 47 40 0 30 3 55 6 55 4 0 26 -16 50 -35 23 -19 48 -35 54 -35 8 0 11
12 8 35 -3 24 0 35 9 35 9 0 13 -18 13 -65 0 -36 -3 -65 -6 -65 -3 0 -28 18
-54 40 -26 22 -51 40 -55 40 -4 0 -5 -18 -2 -40 l5 -40 -37 0 c-24 0 -42 7
-54 20 -9 11 -22 20 -28 20 -6 0 -8 -8 -4 -20 5 -15 2 -20 -13 -20 -18 0 -21
8 -24 65 l-3 66 45 -3 c38 -3 45 -6 48 -26z m252 -25 c0 -30 3 -57 7 -60 10
-10 43 24 43 44 0 10 5 21 10 24 6 3 10 15 10 26 0 23 19 21 31 -2 3 -8 16
-34 28 -57 26 -53 25 -52 2 -52 -10 0 -21 9 -24 20 -3 12 -14 20 -27 20 -13 0
-24 -8 -27 -20 -4 -16 -14 -20 -44 -20 l-39 0 0 65 c0 51 3 65 15 65 11 0 15
-13 15 -53z m501 32 c3 -8 16 -34 28 -57 26 -53 25 -52 2 -52 -10 0 -21 9 -24
20 -3 12 -14 20 -27 20 -13 0 -24 -8 -27 -20 -3 -11 -12 -20 -20 -20 -12 0
-11 5 3 33 31 58 34 67 34 83 0 18 20 14 31 -7z m265 14 c-4 -5 -13 -8 -19 -8
-7 0 -12 -9 -12 -20 0 -11 5 -20 12 -20 6 0 15 -3 19 -7 4 -5 -2 -8 -14 -8
-15 0 -22 -6 -22 -20 0 -13 7 -20 20 -20 11 0 20 -4 20 -10 0 -5 -15 -10 -34
-10 l-34 0 -4 65 -3 65 39 0 c22 0 36 -3 32 -7z m115 -40 c-4 -55 17 -80 51
-62 16 9 19 19 16 60 -2 34 1 49 10 49 18 0 16 -97 -2 -116 -18 -17 -80 -19
-94 -1 -5 6 -12 36 -13 65 -4 47 -2 52 16 52 18 0 20 -5 16 -47z m179 12 c19
-19 38 -35 42 -35 4 0 8 16 8 35 0 22 5 35 13 35 10 0 12 -15 9 -62 -2 -35 -6
-65 -9 -68 -2 -3 -22 14 -44 38 -42 44 -57 40 -47 -13 4 -17 1 -25 -8 -25 -10
0 -14 17 -14 65 0 36 4 65 8 65 4 0 23 -16 42 -35z m406 28 c-4 -5 -13 -8 -19
-8 -7 0 -12 -9 -12 -20 0 -11 5 -20 12 -20 6 0 15 -3 19 -7 4 -5 -2 -8 -14 -8
-15 0 -22 -6 -22 -20 0 -13 7 -20 20 -20 11 0 20 -4 20 -10 0 -5 -15 -10 -34
-10 l-34 0 -4 65 -3 65 39 0 c22 0 36 -3 32 -7z m-2481 -305 l0 -123 53 0 c28
1 52 0 52 -1 0 -2 -7 -10 -16 -18 -16 -17 -119 -23 -139 -8 -6 4 -10 63 -10
140 l0 132 30 0 30 0 0 -122z m336 108 c44 -18 65 -42 77 -89 25 -90 -44 -169
-148 -169 -102 0 -177 83 -147 164 20 53 30 67 72 87 48 24 100 26 146 7z
m371 -118 c-2 -73 -6 -135 -8 -137 -3 -3 -44 34 -92 82 -48 48 -91 87 -95 87
-12 0 -8 -145 5 -158 9 -9 3 -12 -27 -12 -30 0 -36 3 -27 12 8 8 12 50 12 124
0 62 4 115 8 118 5 3 46 -33 93 -80 46 -46 90 -84 98 -84 11 0 13 15 9 73 -3
39 -9 80 -13 90 -6 13 -2 17 16 17 l24 0 -3 -132z m292 122 c15 -5 26 -17 26
-28 0 -30 -10 -31 -37 -6 -37 34 -101 33 -137 -2 -22 -23 -26 -35 -26 -84 0
-48 4 -61 26 -84 29 -28 86 -48 111 -39 12 5 14 18 11 59 l-5 54 32 0 32 0 -5
-52 c-2 -29 -9 -59 -14 -65 -15 -19 -133 -16 -175 4 -99 46 -94 185 7 235 39
19 115 23 154 8z m341 -6 c27 -18 33 -52 13 -83 -10 -16 -7 -24 16 -52 47 -56
17 -111 -69 -123 -81 -13 -80 -14 -80 139 l0 135 48 0 c27 0 58 -7 72 -16z
m255 2 c0 -9 -12 -13 -37 -12 l-38 1 0 -45 c0 -45 0 -45 38 -48 50 -4 47 -22
-4 -22 l-40 0 3 -52 3 -53 42 -1 c24 0 46 -4 50 -7 19 -20 37 12 117 206 8 20
19 37 23 37 4 0 14 -15 22 -32 8 -18 23 -53 33 -78 11 -25 24 -53 29 -62 5
-10 9 -24 9 -31 0 -7 9 -23 19 -34 20 -21 20 -21 0 -26 -35 -9 -59 3 -59 32
-1 40 -22 61 -62 61 -41 0 -59 -17 -60 -58 l-1 -30 -98 -7 c-54 -3 -104 -3
-111 2 -10 6 -13 43 -13 141 l0 132 68 0 c50 0 67 -3 67 -14z m530 -4 c15 -12
20 -24 15 -31 -4 -7 -10 -9 -14 -5 -14 19 -53 34 -90 34 -81 0 -120 -104 -68
-181 28 -42 74 -57 128 -42 41 11 50 4 24 -17 -23 -19 -139 -9 -172 16 -80 59
-71 178 17 224 47 26 130 26 160 2z m135 -39 l0 -58 65 0 65 0 0 58 c-1 57 0
57 30 57 l30 0 -3 -130 c-3 -103 -1 -130 10 -131 7 0 4 -4 -8 -9 -11 -4 -32
-6 -47 -3 -21 4 -25 8 -17 18 6 8 10 35 8 62 l-3 48 -65 0 -65 0 -3 -48 c-2
-27 2 -54 8 -62 8 -10 4 -14 -16 -18 -39 -7 -67 2 -53 19 7 8 10 55 7 134 l-3
120 30 0 c30 0 31 0 30 -57z"/>
<path d="M3410 2234 c0 -31 23 -28 28 4 2 15 -2 22 -12 22 -11 0 -16 -9 -16
-26z"/>
<path d="M1384 2246 c-9 -38 -1 -59 29 -76 26 -14 29 -14 43 5 17 22 12 74 -9
87 -26 16 -56 9 -63 -16z"/>
<path d="M1566 2263 c-12 -13 -6 -53 9 -53 9 0 15 9 15 24 0 26 -12 40 -24 29z"/>
<path d="M1059 2057 c-42 -32 -52 -111 -19 -164 21 -35 39 -47 88 -58 30 -6
37 -3 63 26 49 54 36 153 -25 193 -30 19 -84 21 -107 3z"/>
<path d="M2127 2063 c-14 -13 -7 -84 8 -89 22 -9 45 14 45 45 0 39 -32 65 -53
44z"/>
<path d="M2127 1943 c-13 -13 -7 -82 9 -97 45 -46 88 25 48 82 -15 21 -44 29
-57 15z"/>
<path d="M2577 1969 c-8 -29 -1 -39 24 -39 16 0 20 6 17 27 -4 35 -33 43 -41
12z"/>
</g>
</svg>
