<svg xmlns="http://www.w3.org/2000/svg" viewBox="0 0 1279.65 409.02"><title>davidheit_logo</title><rect x="518.41" y="-247.27" width="337.53" height="1262.45" transform="translate(217.28 868.65) rotate(-86.73)"/><path d="M193.19,325.68l59.24,1.38a100.7,100.7,0,0,1,26.93,4.36,71.15,71.15,0,0,1,23.92,12.43,62.72,62.72,0,0,1,17,21.32q6.49,12.93,6.07,31-.49,21-8.23,38A84.5,84.5,0,0,1,297,463,91.76,91.76,0,0,1,265.59,481a112,112,0,0,1-39,5.65l-65.34-1.52ZM204.7,453.53l24.19.56q14,.33,24.86-4.06a51.31,51.31,0,0,0,18.15-12,52.63,52.63,0,0,0,11.15-17.61,60.76,60.76,0,0,0,4.1-20.6,46.15,46.15,0,0,0-2.24-15.55,33.78,33.78,0,0,0-7.73-13,38.6,38.6,0,0,0-13.48-8.91,54.61,54.61,0,0,0-19.48-3.62l-20.57-.48Z" transform="translate(-47.35 -179.45)" fill="#fff"/><path d="M443.41,412q-.07,3.17-.5,6.77a68.3,68.3,0,0,1-1.18,7L433,469.46q-1.27,5.86-2,11.94t-.8,9.93l-32.11-.75q.06-2.48.36-5.76t.82-6.2h-.45Q386.1,493,364.17,492.52a52.64,52.64,0,0,1-12.06-1.75,33.19,33.19,0,0,1-11.19-5.24,26.55,26.55,0,0,1-8-9.46,29,29,0,0,1-2.84-14.2q.31-13.57,7.3-22a44.81,44.81,0,0,1,18.06-12.93,92.53,92.53,0,0,1,25-6,216.44,216.44,0,0,1,28-1.16,15.71,15.71,0,0,0,.53-3.15l0-2q.15-6.55-4.41-9.72t-12.93-3.35a43.74,43.74,0,0,0-15.56,2.58,56.76,56.76,0,0,0-14.31,7.36l-14.44-21.15a75.13,75.13,0,0,1,23.69-12,82.25,82.25,0,0,1,26.22-3.8,77.36,77.36,0,0,1,18.72,2.58,42.45,42.45,0,0,1,14.65,7,33.07,33.07,0,0,1,9.57,11.53A34.21,34.21,0,0,1,443.41,412Zm-40.72,29.37q-6.78-.16-13.8.24a54.74,54.74,0,0,0-12.6,2.08,25.94,25.94,0,0,0-9.27,4.76,10.57,10.57,0,0,0-3.81,8.28q-.16,6.78,4.42,9.26a22.22,22.22,0,0,0,10.23,2.61,24.76,24.76,0,0,0,17.56-6,28.31,28.31,0,0,0,9.19-15.73l1.26-5.4Z" transform="translate(-47.35 -179.45)" fill="#fff"/><path d="M517.3,493.36,478,492.45,459.77,379.37l38.21.89,7.55,74.15.68,0,40.83-73,39.34.91Z" transform="translate(-47.35 -179.45)" fill="#fff"/><path d="M575.63,494.71l22.28-112.14,36.4.85L611.58,495.55Zm67.25-148.87a21.8,21.8,0,0,1-1.78,8.33,23,23,0,0,1-4.57,6.79,20,20,0,0,1-6.78,4.59,20.5,20.5,0,0,1-8.4,1.5q-8.6-.2-14-5.42a16.86,16.86,0,0,1-5.24-13.13,21,21,0,0,1,6.58-15.34,20.76,20.76,0,0,1,15.41-5.86,19.14,19.14,0,0,1,13.67,5.52A17.15,17.15,0,0,1,642.88,345.84Z" transform="translate(-47.35 -179.45)" fill="#fff"/><path d="M755,327.86l36.17.84L757,498.93l-33.24-.77,3.07-15.31-.68,0a39.22,39.22,0,0,1-16.14,13A51.35,51.35,0,0,1,687.48,500,50.58,50.58,0,0,1,668,496a41.46,41.46,0,0,1-14.46-10.4,43.85,43.85,0,0,1-8.8-15.47A57.14,57.14,0,0,1,642,450.56a78.33,78.33,0,0,1,5.27-27,70.1,70.1,0,0,1,13.4-21.86,61.16,61.16,0,0,1,20-14.58,56.5,56.5,0,0,1,25.11-5q12.43.29,21.37,5.25a32.58,32.58,0,0,1,13.27,13h.45Zm-77,118.79q-.24,10.17,5.48,17.09t17.25,7.19a28.84,28.84,0,0,0,12.73-2.53,31.15,31.15,0,0,0,10.35-7.56,36.42,36.42,0,0,0,6.94-11.38,40.19,40.19,0,0,0,2.69-13.74q.24-10.4-5.93-17.22t-17-7.07A29.91,29.91,0,0,0,697.39,414a29.46,29.46,0,0,0-10.13,7.46,35.7,35.7,0,0,0-6.6,11.27A42.68,42.68,0,0,0,678.09,446.65Z" transform="translate(-47.35 -179.45)" fill="#fff"/><path d="M857.79,501.27l12-60.8a45,45,0,0,0,1.35-9.47,17.51,17.51,0,0,0-3-10.82q-3.18-4.49-11.54-4.68a19.54,19.54,0,0,0-16.11,7A37.76,37.76,0,0,0,832.29,440L820,500.39l-36.18-.84,34-170.23,36.4.85L839.71,402.9h.45a43.21,43.21,0,0,1,13.63-12A37.5,37.5,0,0,1,874,386a43.8,43.8,0,0,1,16.22,3.09,30.41,30.41,0,0,1,11,7.72A29.34,29.34,0,0,1,907.46,408a41.5,41.5,0,0,1,1.73,13q-.07,3.17-.37,6.21a39.59,39.59,0,0,1-1,6L894,502.11Z" transform="translate(-47.35 -179.45)" fill="#fff"/><path d="M957,457a8.4,8.4,0,0,0-.27,2,16.66,16.66,0,0,0,2,8.53,20.55,20.55,0,0,0,5.51,6.46,26,26,0,0,0,7.82,4.14,31,31,0,0,0,9.13,1.57,34.45,34.45,0,0,0,15.22-2.81,40.76,40.76,0,0,0,12-8.32L1030.72,487A64.91,64.91,0,0,1,1006.14,503a79.93,79.93,0,0,1-28.83,4.42,70.12,70.12,0,0,1-21.74-3.79,50.26,50.26,0,0,1-17.3-10.13,45.48,45.48,0,0,1-11.39-16.21,52.14,52.14,0,0,1-3.79-21.81,71.24,71.24,0,0,1,5.71-26.9,67.78,67.78,0,0,1,14.52-21.49A64.49,64.49,0,0,1,965,393a69,69,0,0,1,27.48-4.68,61.66,61.66,0,0,1,20.16,3.63,44.66,44.66,0,0,1,15.5,9.52,40.66,40.66,0,0,1,9.83,15,53.32,53.32,0,0,1,3.14,20.43,84.91,84.91,0,0,1-1,10.27,100.32,100.32,0,0,1-2.42,11.59Zm51.84-21a11.61,11.61,0,0,0,.28-2.26l.05-2.26a16.34,16.34,0,0,0-5-12.56q-5.2-5.09-15.15-5.33a26.87,26.87,0,0,0-11,1.89,33.08,33.08,0,0,0-8.6,5.12A29.19,29.19,0,0,0,960,434.87Z" transform="translate(-47.35 -179.45)" fill="#fff"/><path d="M1049.51,505.72l22.28-112.14,36.4.85-22.74,112.13Zm67.25-148.87a21.84,21.84,0,0,1-1.78,8.33,23,23,0,0,1-4.57,6.79,20,20,0,0,1-6.78,4.59,20.49,20.49,0,0,1-8.4,1.5q-8.6-.2-14-5.42a16.86,16.86,0,0,1-5.24-13.13,21,21,0,0,1,6.58-15.34,20.76,20.76,0,0,1,15.41-5.86,19.15,19.15,0,0,1,13.67,5.52A17.15,17.15,0,0,1,1116.76,356.85Z" transform="translate(-47.35 -179.45)" fill="#fff"/><path d="M1114.57,421.72l5.6-27,17.86.41,5.89-29.72,35.27.82-5.89,29.72,24,.56-5.6,27-23.29-.54L1159.22,467q-.27,1.58-.42,3.28c-.1,1.13-.16,2.08-.18,2.83q-.13,5.67,3,7.79t8.54,2.24a30.72,30.72,0,0,0,5.32-.33q2.61-.39,4.66-.8l-4,25.92a42.46,42.46,0,0,1-9,2.17,63.2,63.2,0,0,1-11,.76q-16.28-.38-25.51-7.17t-8.9-21.07q.06-2.72.48-6.22a59.41,59.41,0,0,1,1.17-6.66l9.7-47.63Z" transform="translate(-47.35 -179.45)" fill="#fff"/><path d="M205.09,243.75l-2.61,12.87,22.69.53-2.33,11.68-22.69-.53L195.41,292l-14-.33,12.11-60.37,38.1.88-2.42,12.11Z" transform="translate(-47.35 -179.45)" fill="#fff"/><path d="M252.48,287.17a16.36,16.36,0,0,1-5.56,5.05,15,15,0,0,1-8,1.91,15.77,15.77,0,0,1-6.05-1.21,12,12,0,0,1-4.17-3,11.11,11.11,0,0,1-2.34-4.21,15.77,15.77,0,0,1-.66-4.94q0-1.11.14-2.27a17.32,17.32,0,0,1,.4-2.35l5.14-26,13.78.32-4.65,23q-.19.94-.3,1.83t-.13,1.75a6.67,6.67,0,0,0,1.15,4.05q1.2,1.74,4.37,1.81a7.29,7.29,0,0,0,3.4-.69,8.69,8.69,0,0,0,2.66-2,12.16,12.16,0,0,0,2-3,15.48,15.48,0,0,0,1.2-3.57l4.64-22.93,13.7.32-6.78,33.68q-.38,1.62-.83,4.18t-.66,4.61l-13-.3q.11-1,.37-2.95t.46-3.2Z" transform="translate(-47.35 -179.45)" fill="#fff"/><path d="M275.28,293.87l12.89-64.46,14,.32-13,64.46Z" transform="translate(-47.35 -179.45)" fill="#fff"/><path d="M299.34,294.42,312.23,230l14,.32-13,64.46Z" transform="translate(-47.35 -179.45)" fill="#fff"/><path d="M356.4,235.1l22.43.52a38.14,38.14,0,0,1,10.2,1.65,26.94,26.94,0,0,1,9.06,4.71,23.76,23.76,0,0,1,6.45,8.07,24.63,24.63,0,0,1,2.3,11.75,36.45,36.45,0,0,1-3.12,14.4,32,32,0,0,1-8,10.91,34.76,34.76,0,0,1-11.89,6.79A42.42,42.42,0,0,1,369,296l-24.74-.57Zm4.36,48.42,9.16.21a23.47,23.47,0,0,0,9.42-1.54,19.43,19.43,0,0,0,6.87-4.55,19.92,19.92,0,0,0,4.22-6.67,23,23,0,0,0,1.55-7.8,17.46,17.46,0,0,0-.85-5.89,12.8,12.8,0,0,0-2.93-4.91,14.62,14.62,0,0,0-5.1-3.37,20.69,20.69,0,0,0-7.38-1.37l-7.79-.18Z" transform="translate(-47.35 -179.45)" fill="#fff"/><path d="M451.15,267.8q0,1.2-.19,2.57a25.55,25.55,0,0,1-.45,2.65l-3.3,16.54q-.48,2.22-.75,4.52t-.3,3.76L434,297.55q0-.94.14-2.18t.31-2.35h-.17q-4.84,5.46-13.14,5.26a19.89,19.89,0,0,1-4.57-.66,12.56,12.56,0,0,1-4.24-2,10.05,10.05,0,0,1-3-3.58,11,11,0,0,1-1.07-5.38,13.14,13.14,0,0,1,2.76-8.33,17,17,0,0,1,6.84-4.9,35,35,0,0,1,9.47-2.26,81.93,81.93,0,0,1,10.59-.44,6,6,0,0,0,.2-1.19l0-.77a4,4,0,0,0-1.67-3.68,8.91,8.91,0,0,0-4.9-1.27,16.56,16.56,0,0,0-5.89,1,21.49,21.49,0,0,0-5.42,2.79l-5.47-8a28.43,28.43,0,0,1,9-4.55,31.15,31.15,0,0,1,9.93-1.44,29.3,29.3,0,0,1,7.09,1,16.07,16.07,0,0,1,5.55,2.66,12.51,12.51,0,0,1,3.62,4.37A13,13,0,0,1,451.15,267.8Zm-15.42,11.12q-2.57-.06-5.23.09a20.73,20.73,0,0,0-4.77.79,9.82,9.82,0,0,0-3.51,1.8,4,4,0,0,0-1.44,3.14,3.52,3.52,0,0,0,1.68,3.51,8.42,8.42,0,0,0,3.87,1,9.38,9.38,0,0,0,6.65-2.29,10.72,10.72,0,0,0,3.48-6l.48-2Z" transform="translate(-47.35 -179.45)" fill="#fff"/><path d="M479.13,298.6l-14.9-.35-6.89-42.82,14.47.34,2.86,28.08h.26L490.4,256.2l14.9.35Z" transform="translate(-47.35 -179.45)" fill="#fff"/><path d="M501.22,299.11l8.44-42.46,13.78.32-8.61,42.46Zm25.47-56.37a8.26,8.26,0,0,1-.67,3.15,8.67,8.67,0,0,1-1.73,2.57,7.57,7.57,0,0,1-2.57,1.74,7.77,7.77,0,0,1-3.18.57,7.6,7.6,0,0,1-5.31-2.05,6.39,6.39,0,0,1-2-5,8,8,0,0,1,2.49-5.81,7.86,7.86,0,0,1,5.83-2.22,7.24,7.24,0,0,1,5.18,2.09A6.49,6.49,0,0,1,526.69,242.74Z" transform="translate(-47.35 -179.45)" fill="#fff"/><path d="M569.16,235.93l13.7.32-13,64.46-12.59-.29,1.16-5.8h-.26a14.84,14.84,0,0,1-6.11,4.91,19.45,19.45,0,0,1-8.52,1.6,19.17,19.17,0,0,1-7.37-1.54,15.7,15.7,0,0,1-5.48-3.94,16.63,16.63,0,0,1-3.33-5.86,21.64,21.64,0,0,1-1-7.39,29.66,29.66,0,0,1,2-10.23,26.55,26.55,0,0,1,5.07-8.28,23.17,23.17,0,0,1,7.58-5.52,21.39,21.39,0,0,1,9.51-1.88,17.28,17.28,0,0,1,8.09,2,12.34,12.34,0,0,1,5,4.91h.17Zm-29.14,45a9.45,9.45,0,0,0,2.08,6.47q2.17,2.62,6.53,2.72a10.91,10.91,0,0,0,4.82-1,11.78,11.78,0,0,0,3.92-2.86A13.78,13.78,0,0,0,560,282a15.24,15.24,0,0,0,1-5.2,9,9,0,0,0-2.25-6.52,8.55,8.55,0,0,0-6.45-2.68,11.32,11.32,0,0,0-5,1,11.16,11.16,0,0,0-3.83,2.82,13.53,13.53,0,0,0-2.5,4.27A16.17,16.17,0,0,0,540,280.91Z" transform="translate(-47.35 -179.45)" fill="#fff"/><path d="M601,301.43l12.11-60.37,38.78.9-2.42,12.11-25.17-.58-2.33,11.68,24,.56-2.32,11.42-24-.56-2.53,13,27.57.64-2.43,12.19Z" transform="translate(-47.35 -179.45)" fill="#fff"/><path d="M676.73,303.19l-6.37-13.25-11.95,12.83-16.52-.38L664,280.53,653.06,260l15,.35,5.64,11.78,10.46-11.41,16,.37-20.08,20.09,11.82,22.38Z" transform="translate(-47.35 -179.45)" fill="#fff"/><path d="M705.71,324.42,692,324.1l12.6-62.93,13,.3-1.16,5.88h.26a16.84,16.84,0,0,1,6.16-5,17.3,17.3,0,0,1,8-1.66,19.7,19.7,0,0,1,7.5,1.55,16.07,16.07,0,0,1,5.56,3.94,16.24,16.24,0,0,1,3.37,5.9,21.76,21.76,0,0,1,1,7.35,30,30,0,0,1-2,10.28,26.07,26.07,0,0,1-5.12,8.32,23.64,23.64,0,0,1-7.62,5.52,21.4,21.4,0,0,1-9.51,1.88,17.65,17.65,0,0,1-8.09-1.94,12.06,12.06,0,0,1-5-4.87h-.17ZM734.55,281a9.62,9.62,0,0,0-2.08-6.52,8.08,8.08,0,0,0-6.45-2.76,10.58,10.58,0,0,0-4.82,1,12.33,12.33,0,0,0-3.92,2.91,14.46,14.46,0,0,0-2.67,4.31,14.61,14.61,0,0,0-1.06,5.2,9,9,0,0,0,2.25,6.52,8.65,8.65,0,0,0,6.53,2.68,11,11,0,0,0,4.95-1,11.23,11.23,0,0,0,3.79-2.82,13.51,13.51,0,0,0,2.5-4.27A16.18,16.18,0,0,0,734.55,281Z" transform="translate(-47.35 -179.45)" fill="#fff"/><path d="M765.41,287.6a3.18,3.18,0,0,0-.1.77,6.31,6.31,0,0,0,.74,3.23,7.8,7.8,0,0,0,2.08,2.45,9.84,9.84,0,0,0,3,1.57,11.74,11.74,0,0,0,3.46.59,13,13,0,0,0,5.76-1.07,15.42,15.42,0,0,0,4.53-3.15l8.49,7A24.58,24.58,0,0,1,784,305a30.28,30.28,0,0,1-10.92,1.67,26.56,26.56,0,0,1-8.23-1.43,19,19,0,0,1-6.55-3.84A17.22,17.22,0,0,1,754,295.3a19.75,19.75,0,0,1-1.43-8.26,27,27,0,0,1,2.16-10.19,25.65,25.65,0,0,1,5.5-8.14,24.39,24.39,0,0,1,8.22-5.34,26.13,26.13,0,0,1,10.41-1.77A23.34,23.34,0,0,1,786.5,263a16.9,16.9,0,0,1,5.87,3.61,15.4,15.4,0,0,1,3.72,5.7,20.22,20.22,0,0,1,1.19,7.74,31.86,31.86,0,0,1-.39,3.89,38.12,38.12,0,0,1-.92,4.39ZM785,279.66a4.45,4.45,0,0,0,.11-.85c0-.29,0-.57,0-.86a6.19,6.19,0,0,0-1.9-4.76,8.16,8.16,0,0,0-5.74-2,10.19,10.19,0,0,0-4.17.72,12.55,12.55,0,0,0-3.26,1.94,11.07,11.07,0,0,0-3.55,5.4Z" transform="translate(-47.35 -179.45)" fill="#fff"/><path d="M820.81,270.13a18.71,18.71,0,0,1,5-5.19,11.52,11.52,0,0,1,6.94-1.9,15.28,15.28,0,0,1,1.58.12,6.46,6.46,0,0,1,1.32.29l-2.51,12.11a11.13,11.13,0,0,0-1.79-.38c-.57-.07-1.11-.11-1.63-.12a11.22,11.22,0,0,0-5.07.91,11,11,0,0,0-3.44,2.45,10.27,10.27,0,0,0-2,3.17,19.92,19.92,0,0,0-1,3l-4.36,21.83-13.7-.32,6.86-33.68q.38-1.62.82-4.18t.66-4.61l13,.3c0,.29,0,.7-.11,1.24s-.15,1.11-.25,1.71l-.3,1.79-.25,1.49Z" transform="translate(-47.35 -179.45)" fill="#fff"/><path d="M831.69,306.78l8.44-42.46,13.78.32-8.61,42.46Zm25.46-56.37a8.24,8.24,0,0,1-.67,3.15,8.69,8.69,0,0,1-1.73,2.57,7.6,7.6,0,0,1-2.57,1.74,7.78,7.78,0,0,1-3.18.57,7.6,7.6,0,0,1-5.31-2.05,6.38,6.38,0,0,1-2-5,8,8,0,0,1,2.49-5.81,7.86,7.86,0,0,1,5.83-2.22,7.25,7.25,0,0,1,5.18,2.09A6.48,6.48,0,0,1,857.16,250.41Z" transform="translate(-47.35 -179.45)" fill="#fff"/><path d="M869.69,290a3.19,3.19,0,0,0-.1.77,6.31,6.31,0,0,0,.74,3.23,7.79,7.79,0,0,0,2.08,2.45,9.84,9.84,0,0,0,3,1.57,11.76,11.76,0,0,0,3.46.59,13,13,0,0,0,5.76-1.07,15.43,15.43,0,0,0,4.53-3.15l8.49,7a24.6,24.6,0,0,1-9.31,6.08,30.3,30.3,0,0,1-10.92,1.67,26.57,26.57,0,0,1-8.23-1.43,19,19,0,0,1-6.55-3.84,17.22,17.22,0,0,1-4.31-6.14,19.75,19.75,0,0,1-1.44-8.26A27,27,0,0,1,859,279.28a25.65,25.65,0,0,1,5.5-8.14,24.42,24.42,0,0,1,8.22-5.33A26.12,26.12,0,0,1,883.14,264a23.33,23.33,0,0,1,7.63,1.38,16.91,16.91,0,0,1,5.87,3.61,15.4,15.4,0,0,1,3.72,5.7,20.21,20.21,0,0,1,1.19,7.74,31.87,31.87,0,0,1-.39,3.89,38.09,38.09,0,0,1-.92,4.39Zm19.63-7.94a4.45,4.45,0,0,0,.11-.85c0-.29,0-.57,0-.86a6.19,6.19,0,0,0-1.9-4.76,8.15,8.15,0,0,0-5.74-2,10.17,10.17,0,0,0-4.17.72,12.54,12.54,0,0,0-3.26,1.94,11,11,0,0,0-3.55,5.4Z" transform="translate(-47.35 -179.45)" fill="#fff"/><path d="M925.26,272.47a16.58,16.58,0,0,1,5.6-5.1,15,15,0,0,1,7.92-1.87,16.6,16.6,0,0,1,6.14,1.17,11.5,11.5,0,0,1,4.17,2.92,11.11,11.11,0,0,1,2.35,4.21,15.75,15.75,0,0,1,.66,4.94c0,.8-.07,1.58-.14,2.35a15.21,15.21,0,0,1-.4,2.26l-5.23,26.09-13.7-.32,4.56-23a17.08,17.08,0,0,0,.51-3.58,6.61,6.61,0,0,0-1.15-4.08q-1.2-1.7-4.37-1.77a7.65,7.65,0,0,0-3.4.65,8.63,8.63,0,0,0-2.7,1.94,10.64,10.64,0,0,0-2,2.94,16.7,16.7,0,0,0-1.15,3.56l-4.65,23-13.7-.32,6.69-33.68q.38-1.62.82-4.18t.66-4.61l13.1.3q-.11,1-.37,2.9t-.46,3.24Z" transform="translate(-47.35 -179.45)" fill="#fff"/><path d="M990.93,281.36a8.07,8.07,0,0,0-2.89-2.64,9.15,9.15,0,0,0-4.47-1.22,11.89,11.89,0,0,0-9.13,3.8,14,14,0,0,0-2.71,4.25,13.9,13.9,0,0,0-1.06,5.05,10.81,10.81,0,0,0,.48,3.47,8.12,8.12,0,0,0,1.6,2.94,8.21,8.21,0,0,0,2.82,2.07,10.3,10.3,0,0,0,4.14.86,11.2,11.2,0,0,0,5.25-1,13.78,13.78,0,0,0,3.74-2.65l6.3,8.92a26.48,26.48,0,0,1-7.64,4.61,24.73,24.73,0,0,1-9.72,1.54,25.88,25.88,0,0,1-8.45-1.52,18.32,18.32,0,0,1-6.46-4,17.4,17.4,0,0,1-4.06-6,19,19,0,0,1-1.32-7.74,26.8,26.8,0,0,1,2.12-9.93,26.21,26.21,0,0,1,5.5-8.27,25.68,25.68,0,0,1,19.19-7.56,25.25,25.25,0,0,1,9.08,1.84,14.18,14.18,0,0,1,6.52,5.12Z" transform="translate(-47.35 -179.45)" fill="#fff"/><path d="M1011.81,293.32a3.18,3.18,0,0,0-.1.77,6.31,6.31,0,0,0,.74,3.23,7.79,7.79,0,0,0,2.08,2.45,9.83,9.83,0,0,0,3,1.57,11.74,11.74,0,0,0,3.46.59,13,13,0,0,0,5.76-1.07,15.42,15.42,0,0,0,4.53-3.15l8.49,7a24.59,24.59,0,0,1-9.31,6.08,30.28,30.28,0,0,1-10.92,1.67,26.55,26.55,0,0,1-8.23-1.43,19,19,0,0,1-6.55-3.84,17.22,17.22,0,0,1-4.31-6.14,19.75,19.75,0,0,1-1.44-8.26,27,27,0,0,1,2.16-10.19,25.65,25.65,0,0,1,5.5-8.14,24.41,24.41,0,0,1,8.22-5.34,26.13,26.13,0,0,1,10.41-1.77,23.34,23.34,0,0,1,7.63,1.38,16.91,16.91,0,0,1,5.87,3.61,15.4,15.4,0,0,1,3.72,5.7,20.22,20.22,0,0,1,1.19,7.74,31.86,31.86,0,0,1-.39,3.89,38.12,38.12,0,0,1-.92,4.39Zm19.63-7.94a4.45,4.45,0,0,0,.11-.85c0-.29,0-.57,0-.86a6.18,6.18,0,0,0-1.9-4.76,8.15,8.15,0,0,0-5.74-2,10.19,10.19,0,0,0-4.17.72,12.52,12.52,0,0,0-3.26,1.94,11,11,0,0,0-3.55,5.4Z" transform="translate(-47.35 -179.45)" fill="#fff"/></svg>