<?xml version="1.0" encoding="utf-8"?>
<!-- Generator: Adobe Illustrator 21.0.2, SVG Export Plug-In . SVG Version: 6.00 Build 0)  -->
<svg version="1.1" id="Layer_1" xmlns="http://www.w3.org/2000/svg" xmlns:xlink="http://www.w3.org/1999/xlink" x="0px" y="0px"
	 viewBox="0 0 792 612" style="enable-background:new 0 0 792 612;" xml:space="preserve">
<style type="text/css">
	.st0{fill:#010101;}
	.st1{fill:#FFFFFF;}
</style>
<g>
	<rect x="27.2" y="219.9" class="st0" width="737.6" height="172.5"/>
</g>
<g>
	<path class="st1" d="M55.6,343.6h10.7c2,0,3.6,0.5,4.7,1.4c1.2,0.9,1.8,2.3,1.8,4.1c0,1.1-0.3,2.1-0.8,2.8
		c-0.5,0.8-1.3,1.4-2.3,1.8v0.1c1.4,0.3,2.4,0.9,3.1,1.9c0.7,1,1,2.2,1,3.7c0,0.9-0.2,1.7-0.5,2.4c-0.3,0.7-0.8,1.4-1.4,1.9
		c-0.7,0.5-1.5,1-2.5,1.3c-1,0.3-2.2,0.5-3.7,0.5H55.6V343.6z M59.5,352.8h6.3c0.9,0,1.7-0.3,2.3-0.8c0.6-0.5,0.9-1.3,0.9-2.3
		c0-1.1-0.3-1.9-0.8-2.3c-0.6-0.5-1.4-0.7-2.4-0.7h-6.3V352.8z M59.5,362.5h6.8c1.2,0,2.1-0.3,2.7-0.9c0.6-0.6,1-1.5,1-2.6
		c0-1.1-0.3-1.9-1-2.5c-0.6-0.6-1.6-0.9-2.7-0.9h-6.8V362.5z"/>
	<path class="st1" d="M83,357l-8.3-13.4h4.5l5.8,9.9l5.7-9.9h4.3L86.9,357v8.6H83V357z"/>
	<path class="st1" d="M105.8,343.6H121v3.3h-11.3v5.8h9.9v3.1h-9.9v9.8h-3.8V343.6z"/>
	<path class="st1" d="M123.8,343.6h3.8v12.8c0,0.7,0,1.5,0.1,2.2c0.1,0.8,0.3,1.4,0.6,2c0.3,0.6,0.9,1.1,1.5,1.5
		c0.7,0.4,1.7,0.6,2.9,0.6s2.2-0.2,2.9-0.6c0.7-0.4,1.2-0.9,1.5-1.5c0.3-0.6,0.5-1.3,0.6-2c0.1-0.8,0.1-1.5,0.1-2.2v-12.8h3.8v14.1
		c0,1.4-0.2,2.6-0.6,3.7c-0.4,1-1,1.9-1.8,2.6c-0.8,0.7-1.7,1.2-2.8,1.6c-1.1,0.3-2.3,0.5-3.7,0.5c-1.4,0-2.6-0.2-3.7-0.5
		c-1.1-0.3-2.1-0.9-2.8-1.6c-0.8-0.7-1.4-1.6-1.8-2.6c-0.4-1-0.6-2.3-0.6-3.7V343.6z"/>
	<path class="st1" d="M146.3,343.6h3.8v18.7h11.2v3.3h-15V343.6z"/>
	<path class="st1" d="M164,343.6h3.8v18.7H179v3.3h-15V343.6z"/>
	<path class="st1" d="M190.3,343.6h9.1c1.7,0,3.1,0.3,4.4,0.9c1.2,0.6,2.2,1.4,3,2.4c0.8,1,1.4,2.2,1.7,3.5c0.4,1.3,0.6,2.8,0.6,4.3
		c0,1.5-0.2,2.9-0.6,4.3c-0.4,1.3-1,2.5-1.7,3.5c-0.8,1-1.8,1.8-3,2.4c-1.2,0.6-2.7,0.9-4.4,0.9h-9.1V343.6z M194.1,362.5h3.8
		c1.5,0,2.7-0.2,3.7-0.6c1-0.4,1.7-1,2.2-1.7c0.5-0.7,0.9-1.5,1.1-2.5c0.2-1,0.3-2,0.3-3.1c0-1.1-0.1-2.1-0.3-3.1
		c-0.2-1-0.6-1.8-1.1-2.5c-0.5-0.7-1.3-1.3-2.2-1.7c-1-0.4-2.2-0.6-3.7-0.6h-3.8V362.5z"/>
	<path class="st1" d="M218.4,343.6h4.1l8.5,22h-4.1l-2.1-5.8H216l-2.1,5.8h-4L218.4,343.6z M217,356.9h6.7l-3.3-9.5h-0.1L217,356.9z
		"/>
	<path class="st1" d="M228.6,343.6h4l5.5,17.4h0.1l5.6-17.4h3.9l-7.5,22H236L228.6,343.6z"/>
	<path class="st1" d="M249.9,343.6h3.8v22h-3.8V343.6z"/>
	<path class="st1" d="M258.5,343.6h9.1c1.7,0,3.1,0.3,4.4,0.9c1.2,0.6,2.2,1.4,3,2.4c0.8,1,1.4,2.2,1.7,3.5c0.4,1.3,0.6,2.8,0.6,4.3
		c0,1.5-0.2,2.9-0.6,4.3c-0.4,1.3-1,2.5-1.7,3.5c-0.8,1-1.8,1.8-3,2.4c-1.2,0.6-2.7,0.9-4.4,0.9h-9.1V343.6z M262.4,362.5h3.8
		c1.5,0,2.7-0.2,3.7-0.6c1-0.4,1.7-1,2.2-1.7c0.5-0.7,0.9-1.5,1.1-2.5c0.2-1,0.3-2,0.3-3.1c0-1.1-0.1-2.1-0.3-3.1
		c-0.2-1-0.6-1.8-1.1-2.5c-0.5-0.7-1.3-1.3-2.2-1.7c-1-0.4-2.2-0.6-3.7-0.6h-3.8V362.5z"/>
	<path class="st1" d="M289.3,343.6h15.8v3.3h-12v5.8h11.1v3.1h-11.1v6.4h12.2v3.3h-16V343.6z"/>
	<path class="st1" d="M306.8,343.6h4.6l5,7.8l5.2-7.8h4.3l-7.3,10.6l7.8,11.4h-4.7l-5.5-8.4l-5.6,8.4h-4.4l7.8-11.4L306.8,343.6z"/>
	<path class="st1" d="M328.7,343.6h9.7c1.6,0,2.8,0.2,3.8,0.7c1,0.5,1.7,1,2.3,1.7c0.5,0.7,0.9,1.4,1.1,2.2c0.2,0.8,0.3,1.5,0.3,2.2
		c0,0.7-0.1,1.4-0.3,2.2c-0.2,0.8-0.6,1.5-1.1,2.2c-0.5,0.7-1.3,1.2-2.3,1.7c-1,0.4-2.3,0.7-3.8,0.7h-5.9v8.4h-3.8V343.6z
		 M332.5,354h5.6c0.4,0,0.9-0.1,1.3-0.2c0.5-0.1,0.9-0.3,1.2-0.6c0.4-0.3,0.7-0.6,0.9-1.1c0.2-0.5,0.4-1,0.4-1.7
		c0-0.7-0.1-1.3-0.3-1.8c-0.2-0.5-0.5-0.8-0.8-1.1c-0.3-0.3-0.7-0.5-1.2-0.6c-0.5-0.1-0.9-0.2-1.4-0.2h-5.7V354z"/>
	<path class="st1" d="M349.2,343.6H365v3.3h-12v5.8h11.1v3.1h-11.1v6.4h12.2v3.3h-16V343.6z"/>
	<path class="st1" d="M368.6,343.6h10.5c2.4,0,4.2,0.5,5.5,1.6c1.2,1,1.8,2.5,1.8,4.4c0,1-0.2,1.9-0.5,2.6c-0.3,0.7-0.7,1.2-1.1,1.7
		c-0.4,0.4-0.8,0.7-1.2,0.9c-0.4,0.2-0.7,0.3-0.9,0.4v0.1c0.3,0,0.7,0.1,1.1,0.3c0.4,0.2,0.7,0.4,1.1,0.8c0.3,0.4,0.6,0.8,0.8,1.4
		c0.2,0.6,0.3,1.3,0.3,2.2c0,1.3,0.1,2.5,0.3,3.5c0.2,1.1,0.5,1.8,0.9,2.3h-4.1c-0.3-0.5-0.5-1-0.5-1.6c-0.1-0.6-0.1-1.1-0.1-1.7
		c0-1-0.1-1.9-0.2-2.6c-0.1-0.7-0.3-1.3-0.7-1.8c-0.3-0.5-0.8-0.8-1.3-1.1c-0.6-0.2-1.3-0.3-2.2-0.3h-5.7v9.1h-3.8V343.6z
		 M372.5,353.6h6.3c1.2,0,2.2-0.3,2.8-0.9c0.6-0.6,1-1.5,1-2.6c0-0.7-0.1-1.3-0.3-1.7c-0.2-0.4-0.5-0.8-0.8-1
		c-0.4-0.2-0.8-0.4-1.2-0.5c-0.5-0.1-0.9-0.1-1.4-0.1h-6.3V353.6z"/>
	<path class="st1" d="M390.3,343.6h3.8v22h-3.8V343.6z"/>
	<path class="st1" d="M398.8,343.6h15.8v3.3h-12v5.8h11.1v3.1h-11.1v6.4h12.2v3.3h-16V343.6z"/>
	<path class="st1" d="M418.1,343.6h4.1l10,16.2h0.1v-16.2h3.7v22h-4.1l-10-16.2h-0.1v16.2h-3.7V343.6z"/>
	<path class="st1" d="M455.3,350.6c-0.2-0.6-0.4-1.2-0.7-1.8c-0.3-0.5-0.7-1-1.1-1.4c-0.5-0.4-1-0.7-1.6-0.9
		c-0.6-0.2-1.3-0.3-2.1-0.3c-1.2,0-2.2,0.2-3,0.7c-0.9,0.5-1.5,1.1-2.1,1.9c-0.5,0.8-0.9,1.7-1.2,2.7c-0.3,1-0.4,2-0.4,3.1
		s0.1,2.1,0.4,3.1c0.3,1,0.7,1.9,1.2,2.7c0.5,0.8,1.2,1.4,2.1,1.9s1.9,0.7,3,0.7c0.9,0,1.6-0.1,2.3-0.4c0.7-0.3,1.2-0.7,1.7-1.2
		c0.5-0.5,0.8-1.1,1.1-1.8c0.3-0.7,0.4-1.4,0.5-2.2h3.8c-0.1,1.3-0.4,2.5-0.8,3.6c-0.5,1.1-1.1,2-2,2.8c-0.8,0.8-1.8,1.4-2.9,1.8
		c-1.1,0.4-2.3,0.6-3.7,0.6c-1.6,0-3.1-0.3-4.4-0.9c-1.3-0.6-2.4-1.4-3.3-2.5c-0.9-1-1.6-2.3-2.1-3.7c-0.5-1.4-0.7-2.9-0.7-4.5
		c0-1.6,0.2-3,0.7-4.4c0.5-1.4,1.2-2.6,2.1-3.7c0.9-1,2-1.9,3.3-2.5c1.3-0.6,2.8-0.9,4.4-0.9c1.2,0,2.4,0.2,3.5,0.5
		c1.1,0.3,2,0.8,2.9,1.5c0.8,0.6,1.5,1.4,2,2.4c0.5,0.9,0.8,2,1,3.2H455.3z"/>
	<path class="st1" d="M462.7,343.6h15.8v3.3h-12v5.8h11.1v3.1h-11.1v6.4h12.2v3.3h-16V343.6z"/>
</g>
<g>
	<g>
		<path class="st1" d="M90.5,285.4c0.1-3-0.7-5.2-2.4-6.7c-1.7-1.5-4.1-2.2-7.1-2.2c-2.7,0-5,0.7-7,2.1c-2,1.4-3.6,3.1-5,5.2
			c-1.3,2.1-2.3,4.4-2.9,7c-0.7,2.5-1,4.9-1,7.2c0,1.8,0.2,3.5,0.6,5c0.4,1.5,1,2.8,1.8,4c0.8,1.1,1.9,2,3.3,2.7c1.4,0.7,3.1,1,5,1
			c3.2,0,5.8-0.8,7.8-2.5c2-1.7,3.5-4,4.3-7h10.7c-1.7,6.2-4.7,10.8-8.8,13.6c-4.1,2.9-9.4,4.3-15.8,4.3c-3.2,0-6-0.5-8.4-1.5
			c-2.4-1-4.5-2.4-6.1-4.3c-1.7-1.8-2.9-4-3.8-6.5c-0.9-2.5-1.3-5.3-1.3-8.4c0-4,0.6-7.9,1.9-11.6c1.2-3.7,3.1-6.9,5.4-9.7
			c2.4-2.8,5.2-5,8.6-6.6c3.4-1.6,7.2-2.4,11.5-2.4c2.7,0,5.2,0.4,7.6,1.1c2.4,0.7,4.4,1.8,6.2,3.3c1.7,1.4,3.1,3.2,4.1,5.4
			c1,2.2,1.5,4.7,1.4,7.5H90.5z"/>
	</g>
	<g>
		<path class="st1" d="M127.5,319c-6.7,0-11.9-1.8-15.6-5.5c-3.7-3.6-5.5-8.9-5.5-15.6c0-4,0.7-7.8,2-11.4c1.3-3.6,3.2-6.7,5.6-9.5
			c2.4-2.7,5.3-4.9,8.7-6.5c3.4-1.6,7.2-2.4,11.4-2.4c6.7,0,11.9,1.8,15.6,5.3c3.7,3.5,5.5,8.7,5.5,15.5c0,4.2-0.6,8.2-1.9,11.9
			c-1.2,3.7-3.1,6.9-5.5,9.6c-2.4,2.7-5.3,4.8-8.7,6.4C135.6,318.2,131.8,319,127.5,319z M133.3,276.5c-2.7,0-5.1,0.7-7.1,2.1
			c-2,1.4-3.7,3.1-5.1,5.2c-1.4,2.1-2.4,4.4-3,7c-0.7,2.6-1,5-1,7.5c0,3.6,0.9,6.5,2.7,8.9c1.8,2.4,4.6,3.5,8.5,3.5
			c2.7,0,5.1-0.7,7.1-2c2-1.3,3.7-3.1,5.1-5.1c1.4-2.1,2.4-4.4,3-7c0.7-2.6,1-5.1,1-7.5c0-3.5-0.9-6.5-2.7-8.9
			C139.9,277.7,137.1,276.5,133.3,276.5z"/>
	</g>
	<g>
		<path class="st1" d="M204.4,317.7h-10.2l1.5-6.5l-0.2-0.2c-2.1,3.1-4.5,5.2-7,6.4c-2.6,1.1-5.3,1.7-8.1,1.7
			c-1.4,0-3.1-0.2-5.2-0.6c-2.1-0.4-4.2-1.2-6.2-2.6c-2-1.3-3.8-3.3-5.2-5.9c-1.4-2.6-2.1-6.2-2.1-10.7c0-3.9,0.6-7.7,1.8-11.4
			c1.2-3.7,2.9-7,5.1-9.9c2.2-2.9,5-5.3,8.2-7.1c3.2-1.8,6.9-2.7,11.1-2.7c3.2,0,6.2,0.6,8.8,1.8c2.6,1.2,4.5,3.2,5.8,6.2h0.2
			l5.3-25h10.7L204.4,317.7z M199.8,288.1c0-1.6-0.2-3.1-0.6-4.5c-0.4-1.4-1-2.7-1.9-3.7s-1.9-1.9-3.3-2.5c-1.4-0.6-3-0.9-4.9-0.9
			c-3,0-5.5,0.7-7.7,2c-2.1,1.3-3.9,3.1-5.2,5.3c-1.4,2.2-2.4,4.6-3,7.3s-1,5.4-1,8.1c0,3.6,0.9,6.4,2.7,8.4c1.8,2,4.6,3,8.3,3
			c2.7,0,5.1-0.7,7.2-2.1c2.1-1.4,3.8-3.3,5.2-5.5c1.4-2.2,2.4-4.6,3.1-7.3C199.4,293,199.8,290.5,199.8,288.1z"/>
	</g>
	<g>
		<path class="st1" d="M263,302.7c-1.7,5.7-4.5,9.8-8.5,12.4c-4,2.6-8.9,3.9-14.8,3.9c-3.1,0-5.9-0.5-8.5-1.4
			c-2.6-1-4.8-2.4-6.7-4.2c-1.9-1.8-3.3-4-4.4-6.6c-1.1-2.6-1.6-5.5-1.6-8.8c0-3.7,0.6-7.4,1.8-10.9c1.2-3.6,2.9-6.7,5.2-9.5
			c2.3-2.8,5.1-5.1,8.4-6.8c3.3-1.7,7.1-2.6,11.4-2.6c4.3,0,7.8,0.7,10.5,2.1c2.7,1.4,4.8,3.2,6.3,5.4c1.5,2.2,2.5,4.6,3,7.2
			c0.5,2.6,0.8,5.1,0.8,7.5c0,1.2-0.1,2.3-0.2,3.3c-0.1,1-0.2,1.9-0.4,2.7h-36c-0.1,0.3-0.1,0.6-0.1,0.8c0,0.2,0,0.5,0,0.7v1.5
			c0,3.4,0.9,6.1,2.7,8.1c1.8,2.1,4.7,3.1,8.8,3.1c2.9,0,5.3-0.7,7.4-2c2.1-1.3,3.5-3.3,4.2-5.9H263z M255.3,289.3
			c0.1-0.3,0.1-0.6,0.1-0.8c0-0.2,0-0.5,0-0.7v-1.5c0-2.9-0.9-5.2-2.7-7.1c-1.8-1.8-4.3-2.8-7.5-2.8c-4,0-7.2,1.2-9.5,3.6
			c-2.4,2.4-4.1,5.5-5.1,9.2H255.3z"/>
	</g>
	<g>
		<path class="st1" d="M278.5,269.4h10.7l-10,48.3h-10.7L278.5,269.4z M282.4,251h10.6l-2.1,10.1h-10.6L282.4,251z"/>
	</g>
	<g>
		<path class="st1" d="M325.2,283.5c-0.1-2.4-1-4.2-2.8-5.3c-1.8-1.1-4.1-1.7-7-1.7c-1.1,0-2.1,0.1-3,0.3c-1,0.2-1.8,0.5-2.6,1
			c-0.8,0.5-1.4,1.1-1.9,1.9c-0.5,0.8-0.7,1.8-0.7,2.9c0,1.1,0.4,2,1.3,2.7c0.8,0.7,1.9,1.3,3.3,1.8c1.4,0.5,2.9,1,4.6,1.5
			c1.7,0.5,3.4,1,5,1.6c1.4,0.6,2.8,1.2,4.2,1.9c1.4,0.7,2.6,1.5,3.6,2.5c1,1,1.9,2.2,2.5,3.5c0.6,1.4,0.9,3,0.9,5
			c0,2.8-0.6,5.2-1.9,7.2c-1.2,2-2.9,3.6-4.9,5c-2,1.3-4.3,2.3-6.9,2.8c-2.6,0.6-5.2,0.9-7.8,0.9c-2.8,0-5.4-0.3-7.8-0.8
			c-2.4-0.5-4.5-1.4-6.4-2.7c-1.8-1.3-3.2-3-4.3-5.1c-1.1-2.1-1.6-4.9-1.7-8.2h10.1c-0.1,3.1,0.8,5.2,2.9,6.5
			c2.1,1.3,4.6,1.9,7.8,1.9c1.1,0,2.3-0.1,3.5-0.3c1.2-0.2,2.3-0.6,3.3-1.1c1-0.5,1.8-1.2,2.5-2.1c0.7-0.9,1-2,1-3.4
			c0-1.2-0.5-2.3-1.4-3.1c-0.9-0.8-2.1-1.5-3.5-2.1c-1.4-0.6-3-1.1-4.8-1.6c-1.8-0.5-3.5-1.1-5.2-1.7c-1.4-0.5-2.8-1.1-4.1-1.8
			c-1.3-0.7-2.4-1.5-3.4-2.5c-1-1-1.8-2.1-2.3-3.4c-0.6-1.3-0.8-2.9-0.8-4.7c0-2.6,0.6-4.9,1.7-6.7c1.2-1.9,2.7-3.4,4.5-4.6
			c1.9-1.2,4-2.1,6.4-2.6c2.4-0.6,4.8-0.8,7.3-0.8c2.6,0,5.1,0.2,7.4,0.7c2.3,0.5,4.3,1.3,6,2.5c1.7,1.2,3.1,2.8,4,4.8
			c1,2,1.4,4.5,1.4,7.5H325.2z"/>
	</g>
	<g>
		<path class="st1" d="M341.7,305.1h13l-2.8,12.6h-13L341.7,305.1z"/>
	</g>
	<g>
		<path class="st1" d="M397.9,283.5c-0.1-2.4-1-4.2-2.8-5.3c-1.8-1.1-4.1-1.7-7-1.7c-1.1,0-2.1,0.1-3,0.3c-1,0.2-1.8,0.5-2.6,1
			c-0.8,0.5-1.4,1.1-1.9,1.9c-0.5,0.8-0.7,1.8-0.7,2.9c0,1.1,0.4,2,1.3,2.7c0.8,0.7,1.9,1.3,3.3,1.8c1.4,0.5,2.9,1,4.6,1.5
			c1.7,0.5,3.4,1,5,1.6c1.4,0.6,2.8,1.2,4.2,1.9c1.4,0.7,2.6,1.5,3.6,2.5c1,1,1.9,2.2,2.5,3.5c0.6,1.4,0.9,3,0.9,5
			c0,2.8-0.6,5.2-1.9,7.2c-1.2,2-2.9,3.6-4.9,5c-2,1.3-4.3,2.3-6.9,2.8c-2.6,0.6-5.2,0.9-7.8,0.9c-2.8,0-5.4-0.3-7.8-0.8
			c-2.4-0.5-4.5-1.4-6.4-2.7c-1.8-1.3-3.2-3-4.3-5.1c-1.1-2.1-1.6-4.9-1.7-8.2h10.1c-0.1,3.1,0.8,5.2,2.9,6.5
			c2.1,1.3,4.6,1.9,7.8,1.9c1.1,0,2.3-0.1,3.5-0.3c1.2-0.2,2.3-0.6,3.3-1.1c1-0.5,1.8-1.2,2.5-2.1c0.7-0.9,1-2,1-3.4
			c0-1.2-0.5-2.3-1.4-3.1c-0.9-0.8-2.1-1.5-3.5-2.1c-1.4-0.6-3-1.1-4.8-1.6c-1.8-0.5-3.5-1.1-5.2-1.7c-1.4-0.5-2.8-1.1-4.1-1.8
			c-1.3-0.7-2.4-1.5-3.4-2.5c-1-1-1.8-2.1-2.3-3.4c-0.6-1.3-0.8-2.9-0.8-4.7c0-2.6,0.6-4.9,1.7-6.7c1.2-1.9,2.7-3.4,4.5-4.6
			c1.9-1.2,4-2.1,6.4-2.6c2.4-0.6,4.8-0.8,7.3-0.8c2.6,0,5.1,0.2,7.4,0.7c2.3,0.5,4.3,1.3,6,2.5c1.7,1.2,3.1,2.8,4,4.8
			c1,2,1.4,4.5,1.4,7.5H397.9z"/>
	</g>
	<g>
		<path class="st1" d="M433.8,319c-6.7,0-11.9-1.8-15.6-5.5c-3.7-3.6-5.5-8.9-5.5-15.6c0-4,0.7-7.8,2-11.4c1.3-3.6,3.2-6.7,5.6-9.5
			c2.4-2.7,5.3-4.9,8.7-6.5c3.4-1.6,7.2-2.4,11.4-2.4c6.7,0,11.9,1.8,15.6,5.3c3.7,3.5,5.5,8.7,5.5,15.5c0,4.2-0.6,8.2-1.9,11.9
			c-1.2,3.7-3.1,6.9-5.5,9.6c-2.4,2.7-5.3,4.8-8.7,6.4C442,318.2,438.1,319,433.8,319z M439.6,276.5c-2.7,0-5.1,0.7-7.1,2.1
			c-2,1.4-3.7,3.1-5.1,5.2c-1.4,2.1-2.4,4.4-3,7c-0.7,2.6-1,5-1,7.5c0,3.6,0.9,6.5,2.7,8.9c1.8,2.4,4.6,3.5,8.5,3.5
			c2.7,0,5.1-0.7,7.1-2c2-1.3,3.7-3.1,5.1-5.1c1.4-2.1,2.4-4.4,3-7c0.7-2.6,1-5.1,1-7.5c0-3.5-0.9-6.5-2.7-8.9
			C446.3,277.7,443.5,276.5,439.6,276.5z"/>
	</g>
	<g>
		<path class="st1" d="M477.2,277.3h-7.9l1.6-7.9h7.9c0.6-2.8,1.2-5.3,1.8-7.6c0.6-2.2,1.5-4.2,2.7-5.8c1.2-1.6,2.8-2.9,4.8-3.7
			c2-0.9,4.6-1.3,7.8-1.3c1.4,0,2.8,0.1,4.1,0.2c1.3,0.2,2.6,0.3,3.8,0.4l-1.8,8.1c-1.1-0.2-2.4-0.4-4.1-0.4c-1.8,0-3.2,0.2-4.2,0.7
			c-1,0.5-1.7,1.2-2.2,2.1c-0.5,0.9-0.9,2-1.2,3.2c-0.2,1.2-0.6,2.5-0.9,4h9.3l-1.6,7.9h-9.3l-8.4,40.4h-10.7L477.2,277.3z"/>
	</g>
	<g>
		<path class="st1" d="M511.3,254.9h10.4l-3,14.5h9.6l-1.7,7.9H517l-5,23.6c-0.2,1.1-0.5,2.1-0.7,3c-0.2,0.9-0.3,1.7-0.3,2.2
			c0,1.1,0.2,1.9,0.7,2.6c0.5,0.7,1.5,1,3.1,1c0.8,0,1.7,0,2.7,0c1,0,2-0.2,3-0.4l-1.8,7.8c-1.4,0.3-2.8,0.6-4.4,0.7
			c-1.6,0.2-3,0.3-4.4,0.3c-1.9,0-3.5-0.2-4.8-0.7c-1.2-0.5-2.2-1.2-2.9-2c-0.7-0.8-1.2-1.8-1.5-2.9c-0.3-1.1-0.4-2.2-0.4-3.3
			c0-0.9,0.1-2,0.2-3.1c0.2-1.1,0.3-1.9,0.4-2.3l5.5-26.4h-10l1.7-7.9h10L511.3,254.9z"/>
	</g>
	<g>
		<path class="st1" d="M530.2,269.4h10.9l2.9,34.8h0.2l16.1-34.8h11.1l2.1,34.8h0.3l16.7-34.8h11.2l-25.1,48.3h-11.2l-2.1-35.2h-0.2
			L547,317.7h-11.1L530.2,269.4z"/>
	</g>
	<g>
		<path class="st1" d="M642,303.7c-0.2,0.9-0.4,1.7-0.6,2.5c-0.2,0.8-0.3,1.6-0.3,2.2c0,0.7,0.2,1.2,0.5,1.6
			c0.3,0.4,0.9,0.6,1.8,0.6c0.6,0,1.2-0.1,1.9-0.2c0.6-0.2,1.2-0.3,1.9-0.3l-1.7,7.7c-1.4,0.3-2.7,0.6-4.1,0.9
			c-1.4,0.3-2.8,0.4-4.2,0.4c-1.8,0-3.3-0.6-4.5-1.7c-1.2-1.1-1.8-2.6-2-4.5c-2.1,2.1-4.6,3.7-7.5,4.7c-2.9,1-5.8,1.5-8.8,1.5
			c-2,0-3.9-0.3-5.7-0.8c-1.8-0.6-3.4-1.4-4.8-2.4c-1.4-1.1-2.5-2.4-3.3-4c-0.8-1.6-1.2-3.5-1.2-5.6c0-3,0.6-5.5,1.7-7.5
			c1.1-2,2.6-3.7,4.5-5c1.9-1.3,4-2.3,6.4-2.9c2.4-0.6,5-1,7.7-1.2c3.6-0.2,7.2-0.5,10.7-0.8c1.9-0.1,3.3-0.8,4.2-1.9
			c0.9-1.2,1.4-2.6,1.4-4.4c0-2.3-0.8-3.8-2.4-4.6c-1.6-0.8-3.5-1.2-5.7-1.2c-3,0-5.6,0.5-7.7,1.5c-2.1,1-3.6,3-4.3,6h-10.1
			c0.6-3,1.5-5.5,2.9-7.5c1.4-2,3.1-3.7,5-5c2-1.3,4.2-2.2,6.8-2.7c2.5-0.5,5.2-0.8,8.1-0.8c4.4,0,7.8,0.4,10.2,1.3
			c2.5,0.8,4.3,1.9,5.4,3c1.2,1.2,1.9,2.4,2.1,3.7c0.2,1.3,0.4,2.4,0.4,3.2c0,2.1-0.3,4.5-0.9,7.3L642,303.7z M610,304.4
			c0,1.2,0.3,2.2,0.8,2.9c0.5,0.8,1.2,1.4,2,1.9c0.8,0.5,1.7,0.8,2.7,1c1,0.2,2,0.3,3,0.3c2.6,0,4.8-0.4,6.6-1.3
			c1.8-0.9,3.2-2.1,4.4-3.6c1.2-1.5,2.1-3.3,2.7-5.3c0.7-2,1.2-4.2,1.5-6.5l-0.2-0.2c-0.7,0.7-1.7,1.3-3,1.6
			c-1.2,0.3-2.5,0.5-3.6,0.7c-1.5,0.1-3.2,0.2-5.2,0.4c-2,0.1-3.8,0.5-5.5,1c-1.7,0.5-3.2,1.3-4.4,2.4
			C610.6,300.9,610,302.4,610,304.4z"/>
	</g>
	<g>
		<path class="st1" d="M661,269.4h10.1l-2,9.4l0.2,0.2c0.7-1.3,1.7-2.6,2.8-3.9c1.1-1.3,2.3-2.5,3.6-3.5c1.3-1,2.7-1.9,4.3-2.5
			c1.5-0.7,3.1-1,4.8-1c0.9,0,1.7,0,2.6,0c0.8,0,1.7,0.1,2.6,0.2l-2.2,10.2c-0.6-0.1-1.2-0.2-1.9-0.3c-0.6-0.1-1.2-0.1-1.9-0.1
			c-2.7,0-5.1,0.5-7.1,1.4c-2,1-3.7,2.3-5.1,4c-1.4,1.7-2.5,3.6-3.4,5.8c-0.9,2.2-1.6,4.5-2.1,6.9l-4.5,21.4H651L661,269.4z"/>
	</g>
	<g>
		<path class="st1" d="M732,302.7c-1.7,5.7-4.5,9.8-8.5,12.4c-4,2.6-8.9,3.9-14.8,3.9c-3.1,0-5.9-0.5-8.5-1.4
			c-2.6-1-4.8-2.4-6.7-4.2c-1.9-1.8-3.3-4-4.4-6.6c-1.1-2.6-1.6-5.5-1.6-8.8c0-3.7,0.6-7.4,1.8-10.9c1.2-3.6,2.9-6.7,5.2-9.5
			c2.3-2.8,5.1-5.1,8.4-6.8c3.3-1.7,7.1-2.6,11.4-2.6c4.3,0,7.8,0.7,10.5,2.1c2.7,1.4,4.8,3.2,6.3,5.4c1.5,2.2,2.5,4.6,3,7.2
			c0.5,2.6,0.8,5.1,0.8,7.5c0,1.2-0.1,2.3-0.2,3.3c-0.1,1-0.2,1.9-0.4,2.7h-36c-0.1,0.3-0.1,0.6-0.1,0.8c0,0.2,0,0.5,0,0.7v1.5
			c0,3.4,0.9,6.1,2.7,8.1c1.8,2.1,4.7,3.1,8.8,3.1c2.9,0,5.3-0.7,7.4-2c2.1-1.3,3.5-3.3,4.2-5.9H732z M724.3,289.3
			c0.1-0.3,0.1-0.6,0.1-0.8c0-0.2,0-0.5,0-0.7v-1.5c0-2.9-0.9-5.2-2.7-7.1c-1.8-1.8-4.3-2.8-7.5-2.8c-4,0-7.2,1.2-9.5,3.6
			c-2.4,2.4-4.1,5.5-5.1,9.2H724.3z"/>
	</g>
</g>
</svg>
