<?xml version="1.0" standalone="no"?>
<!DOCTYPE svg PUBLIC "-//W3C//DTD SVG 20010904//EN"
 "http://www.w3.org/TR/2001/REC-SVG-20010904/DTD/svg10.dtd">
<svg version="1.0" xmlns="http://www.w3.org/2000/svg"
 width="400.000000pt" height="253.000000pt" viewBox="0 0 400.000000 253.000000"
 preserveAspectRatio="xMidYMid meet">
<metadata>
Created by potrace 1.13, written by Peter Selinger 2001-2015
</metadata>
<g transform="translate(0.000000,253.000000) scale(0.100000,-0.100000)"
fill="#000000" stroke="none">
<path d="M1495 2514 c-181 -39 -335 -159 -421 -326 -44 -88 -64 -172 -64 -280
0 -91 11 -118 49 -118 10 0 40 -11 67 -25 27 -14 49 -25 50 -25 1 0 4 38 6 85
14 221 162 354 394 355 39 0 95 -5 124 -10 29 -6 55 -8 58 -5 11 11 -114 58
-190 71 -82 14 -185 7 -229 -17 -40 -21 -16 3 35 36 182 116 413 98 572 -47
l52 -48 101 0 c56 0 101 3 101 8 0 24 -73 127 -130 183 -149 147 -364 207
-575 163z"/>
<path d="M2280 2170 l0 -150 155 0 155 0 0 150 0 150 -155 0 -155 0 0 -150z"/>
<path d="M2020 2005 l0 -115 115 0 115 0 0 115 0 115 -115 0 -115 0 0 -115z"/>
<path d="M2610 1915 l0 -85 85 0 85 0 0 85 0 85 -85 0 -85 0 0 -85z"/>
<path d="M2950 1910 l0 -90 85 0 85 0 0 90 0 90 -85 0 -85 0 0 -90z"/>
<path d="M910 1980 c-296 -53 -461 -367 -334 -637 27 -57 123 -168 153 -178
12 -4 51 16 114 58 l95 64 -38 37 c-56 54 -82 116 -90 216 -6 82 -7 84 -20 55
-22 -46 -20 -221 3 -264 l17 -35 -26 25 c-14 13 -38 47 -52 74 -34 67 -36 170
-4 231 46 89 120 148 203 162 33 6 44 12 43 25 0 9 -1 53 -2 97 -1 44 -5 79
-9 79 -5 -1 -28 -5 -53 -9z"/>
<path d="M3140 1660 l0 -150 150 0 150 0 0 150 0 150 -150 0 -150 0 0 -150z"/>
<path d="M2720 1595 l0 -85 85 0 85 0 0 -95 0 -95 95 0 95 0 0 95 0 95 -95 0
-95 0 0 85 0 85 -85 0 -85 0 0 -85z"/>
<path d="M2370 1575 l0 -85 90 0 90 0 0 85 0 85 -90 0 -90 0 0 -85z"/>
<path d="M1315 1384 c-119 -18 -245 -60 -353 -120 -110 -60 -289 -204 -254
-204 7 0 43 15 80 34 161 81 362 129 542 129 146 0 182 -8 485 -108 364 -122
586 -165 840 -165 322 0 525 61 665 200 66 65 141 187 139 226 0 11 -11 -5
-24 -34 -64 -141 -271 -265 -514 -307 -193 -34 -375 -4 -695 114 -72 27 -212
79 -311 115 -251 93 -339 116 -465 120 -58 3 -118 2 -135 0z"/>
<path d="M2220 1262 c0 -11 90 -64 180 -106 116 -55 225 -79 334 -74 123 7
190 33 269 108 67 63 72 87 10 46 -81 -53 -273 -94 -383 -81 -127 14 -279 55
-362 96 -41 21 -48 23 -48 11z"/>
<path d="M1152 1149 c-108 -14 -223 -48 -328 -98 -56 -27 -104 -54 -108 -60
-9 -15 -8 -14 76 9 139 39 282 54 493 54 279 0 520 -35 738 -108 56 -19 103
-33 105 -31 8 8 -110 67 -231 115 -267 107 -523 148 -745 119z"/>
<path d="M587 692 c-40 -44 -6 -106 54 -100 47 4 71 46 49 86 -20 35 -77 43
-103 14z"/>
<path d="M1107 692 c-40 -44 -6 -106 54 -100 47 4 71 46 49 86 -20 35 -77 43
-103 14z"/>
<path d="M1880 425 l0 -285 50 0 50 0 0 285 0 285 -50 0 -50 0 0 -285z"/>
<path d="M2208 697 c-130 -37 -211 -169 -194 -317 12 -101 75 -189 165 -228
49 -22 183 -21 233 1 80 36 155 134 159 207 1 14 5 -6 10 -43 10 -89 43 -141
106 -169 55 -24 120 -20 182 11 50 26 54 33 35 59 -17 25 -50 28 -78 7 -29
-22 -71 -18 -101 8 -52 44 -52 160 0 204 31 27 62 29 111 6 36 -17 36 -17 55
6 24 30 21 41 -18 63 -41 25 -110 32 -161 19 -51 -14 -108 -68 -120 -114 -8
-30 -9 -29 -15 28 -14 113 -75 203 -165 241 -52 21 -148 26 -204 11z m172
-109 c63 -44 75 -70 75 -168 0 -98 -12 -124 -75 -168 -39 -26 -116 -30 -159
-7 -96 49 -128 213 -59 301 53 66 153 86 218 42z"/>
<path d="M50 420 l0 -280 138 0 c75 0 154 5 174 10 62 18 120 69 153 135 25
51 30 72 30 135 0 63 -5 84 -30 135 -33 66 -91 117 -153 135 -20 5 -99 10
-174 10 l-138 0 0 -280z m301 174 c106 -61 106 -287 0 -348 -23 -13 -60 -21
-112 -24 l-79 -5 0 203 0 203 79 -5 c52 -3 89 -11 112 -24z"/>
<path d="M1305 648 c-2 -7 -8 -35 -12 -62 -8 -45 -11 -51 -41 -58 -27 -7 -32
-13 -32 -39 0 -25 5 -30 30 -36 l30 -5 0 -119 c0 -65 4 -129 10 -144 20 -52
132 -70 186 -31 17 13 17 17 4 41 -12 22 -19 26 -44 21 -49 -10 -56 5 -56 125
l0 109 50 0 50 0 0 40 0 40 -50 0 -50 0 0 65 0 65 -35 0 c-20 0 -38 -6 -40
-12z"/>
<path d="M819 531 c-71 -23 -99 -61 -99 -135 0 -32 6 -52 24 -73 24 -28 24
-29 5 -52 -21 -26 -25 -71 -7 -89 9 -9 5 -16 -15 -32 -38 -30 -37 -81 2 -121
29 -28 31 -29 138 -29 89 0 113 3 140 20 63 38 83 121 39 165 -27 27 -38 30
-146 42 -56 6 -75 12 -75 23 0 11 16 17 60 21 100 9 145 49 145 126 0 37 4 45
25 53 19 7 25 17 25 38 0 29 0 29 -77 36 -43 3 -96 8 -118 11 -22 2 -52 0 -66
-4z m101 -91 c23 -23 26 -58 6 -85 -19 -26 -83 -26 -102 0 -31 42 -1 105 51
105 14 0 34 -9 45 -20z m24 -300 c29 -10 35 -40 12 -59 -22 -18 -107 -24 -136
-9 -29 16 -37 42 -20 63 14 17 105 20 144 5z"/>
<path d="M1600 525 c-69 -23 -86 -39 -72 -70 13 -29 35 -31 85 -10 20 8 46 15
57 15 28 0 60 -35 60 -65 0 -22 -4 -25 -38 -25 -58 0 -131 -25 -163 -56 -23
-22 -29 -36 -29 -72 0 -56 14 -80 55 -98 49 -20 85 -17 139 10 47 24 48 24 53
5 4 -15 14 -19 44 -19 l39 0 0 143 c0 156 -10 192 -62 230 -34 26 -111 31
-168 12z m130 -248 c0 -28 -6 -37 -32 -51 -18 -10 -46 -16 -63 -14 -25 2 -30
8 -33 34 -3 32 12 44 73 57 49 11 55 8 55 -26z"/>
<path d="M3028 531 c-79 -26 -128 -100 -128 -192 1 -120 85 -209 201 -209 42
0 124 28 144 50 17 19 17 21 0 40 -21 23 -50 25 -85 5 -60 -34 -139 1 -154 68
l-6 27 130 0 130 0 0 54 c0 58 -23 103 -71 138 -29 22 -120 32 -161 19z m117
-96 c45 -44 35 -55 -55 -55 -65 0 -80 3 -80 15 0 27 47 65 80 65 19 0 40 -9
55 -25z"/>
<path d="M3380 525 c-69 -23 -86 -39 -72 -70 13 -29 35 -31 85 -10 20 8 46 15
57 15 28 0 60 -35 60 -65 0 -22 -4 -25 -38 -25 -58 0 -131 -25 -163 -56 -23
-22 -29 -36 -29 -72 0 -56 14 -80 55 -98 49 -20 85 -17 139 10 47 24 48 24 53
5 4 -15 14 -19 44 -19 l39 0 0 143 c0 156 -10 192 -62 230 -34 26 -111 31
-168 12z m130 -248 c0 -28 -6 -37 -32 -51 -18 -10 -46 -16 -63 -14 -25 2 -30
8 -33 34 -3 32 12 44 73 57 49 11 55 8 55 -26z"/>
<path d="M3785 521 c-34 -18 -40 -19 -48 -6 -5 9 -23 15 -47 15 l-40 0 0 -195
0 -195 50 0 50 0 0 139 c0 139 0 140 26 160 34 26 68 27 94 1 18 -18 20 -33
20 -160 l0 -140 50 0 50 0 0 153 c0 101 -4 160 -13 176 -32 63 -123 88 -192
52z"/>
<path d="M580 335 l0 -195 50 0 50 0 0 195 0 195 -50 0 -50 0 0 -195z"/>
<path d="M1100 335 l0 -195 50 0 50 0 0 195 0 195 -50 0 -50 0 0 -195z"/>
</g>
</svg>
