<?xml version="1.0" encoding="utf-8"?>
<!-- Generator: Adobe Illustrator 21.0.2, SVG Export Plug-In . SVG Version: 6.00 Build 0)  -->
<svg version="1.1" id="Layer_1" xmlns="http://www.w3.org/2000/svg" xmlns:xlink="http://www.w3.org/1999/xlink" x="0px" y="0px"
	 viewBox="0 0 3000 900" style="enable-background:new 0 0 3000 900;" xml:space="preserve">
<style type="text/css">
	.st0{fill:#3D4352;}
</style>
<g>
	<path class="st0" d="M237.1,369.4h-37.8v-34.2h37.8v-10.8c0-99.6,70.2-112.2,103.8-112.2c11.4,0,18.6,1.2,18.6,1.2V250
		c0,0-5.4-1.2-14.4-1.2c-22.8,0-67.2,8.4-67.2,75.6v10.8h76.8v34.2h-76.8V637h-40.8V369.4z"/>
	<path class="st0" d="M419.5,383.8c0-8.4-4.8-13.2-13.2-13.2h-25.2v-35.4h42c25.2,0,36.6,10.2,36.6,34.2v20.4
		c0,12.6-1.2,22.8-1.2,22.8h1.2c14.4-45.6,48-80.4,95.4-80.4c8.4,0,16.2,1.8,16.2,1.8v40.2c0,0-7.2-1.2-15-1.2
		c-42.6,0-74.4,33.6-87.6,78c-6,19.2-8.4,39.6-8.4,58.8V637h-40.8V383.8z"/>
	<path class="st0" d="M639.7,383.8c0-8.4-4.8-13.2-13.2-13.2h-25.2v-35.4h42.6c25.8,0,36.6,10.8,36.6,36.6v216.6
		c0,9,4.8,13.2,13.2,13.2h25.2V637h-42.6c-25.8,0-36.6-10.8-36.6-36.6V383.8z M638.5,215.2h39.6v51.6h-39.6V215.2z"/>
	<path class="st0" d="M907.9,328c83.4,0,126.6,64.2,126.6,139.2c0,7.2-1.2,20.4-1.2,20.4H801.7c1.2,76.2,54.6,120,117,120
		c55.2,0,90.6-37.2,90.6-37.2l19.8,30.6c0,0-43.8,43.2-112.2,43.2c-89.4,0-157.8-64.8-157.8-157.8C759.1,387.4,826.9,328,907.9,328z
		 M992.5,455.2c-2.4-62.4-40.8-93-85.2-93c-49.8,0-93.6,32.4-103.8,93H992.5z"/>
	<path class="st0" d="M1116.1,383.8c0-8.4-4.8-13.2-13.2-13.2h-25.2v-35.4h42c25.2,0,36.6,10.8,36.6,33.6v13.8
		c0,12-1.2,21.6-1.2,21.6h1.2c10.8-27.6,49.2-76.2,120-76.2c75,0,101.4,42.6,101.4,117v143.4c0,9,4.8,13.2,13.2,13.2h25.2V637h-42.6
		c-25.8,0-36.6-10.8-36.6-36.6V455.8c0-47.4-7.2-89.4-65.4-89.4c-51.6,0-96,35.4-109.8,85.2c-3.6,12.6-4.8,26.4-4.8,40.8V637h-40.8
		V383.8z"/>
	<path class="st0" d="M1589.5,328c73.2,0,98.4,56.4,98.4,56.4h1.2c0,0-1.2-10.2-1.2-22.8v-97.8c0-8.4-4.8-13.2-13.2-13.2h-25.2
		v-35.4h42.6c25.8,0,36.6,10.8,36.6,36.6v336.6c0,9,4.8,13.2,13.2,13.2h25.2V637h-42c-25.2,0-36-11.4-36-33.6
		c0-11.4,1.2-19.2,1.2-19.2h-1.2c0,0-24.6,60-103.8,60c-81,0-131.4-64.8-131.4-158.4C1453.9,390.4,1510.3,328,1589.5,328z
		 M1689.1,485.8c0-61.2-31.2-121.2-96-121.2c-53.4,0-97.2,45-97.2,121.2c0,74.4,39,121.8,95.4,121.8
		C1641.7,607.6,1689.1,571.6,1689.1,485.8z"/>
	<path class="st0" d="M1831.9,263.8c0-8.4-4.8-13.2-13.2-13.2h-25.2v-35.4h42.6c25.8,0,36.6,10.8,36.6,36.6V361
		c0,13.8-1.2,24.6-1.2,24.6h1.2c0,0,25.2-57.6,102.6-57.6c81,0,131.4,64.8,131.4,158.4c0,95.4-57,157.8-136.2,157.8
		c-72,0-99-58.2-99-58.2h-1.2c0,0,1.2,10.2,1.2,24.6V637h-39.6V263.8z M1967.5,608.2c53.4,0,97.2-45,97.2-121.8
		c0-73.8-39.6-121.2-95.4-121.2c-50.4,0-97.8,36-97.8,121.8C1871.5,547.6,1902.7,608.2,1967.5,608.2z"/>
	<path class="st0" d="M2182.9,383.8c0-8.4-4.8-13.2-13.2-13.2h-25.2v-35.4h42.6c25.8,0,36.6,10.8,36.6,35.4v145.8
		c0,47.4,7.8,89.4,66,89.4c68.4,0,111-60.6,111-126V335.2h40.8v253.2c0,9,4.8,13.2,13.2,13.2h25.2V637h-41.4
		c-25.2,0-36.6-10.8-36.6-33.6v-13.8c0-12,1.2-21.6,1.2-21.6h-1.2c-12,29.4-51.6,76.2-117.6,76.2c-71.4,0-101.4-38.4-101.4-117
		V383.8z"/>
	<path class="st0" d="M2562.7,726.4c26.4,0,44.4-21.6,55.8-49.2l18-41.4l-106.2-251.4c-4.8-10.8-10.2-13.8-21-13.8h-6v-35.4h18.6
		c27,0,35.4,6,46.2,33l77.4,188.4c6,15,10.8,32.4,10.8,32.4h1.2c0,0,4.2-17.4,10.2-32.4l74.4-188.4c10.2-27,19.2-33,46.8-33h18.6
		v35.4h-6c-10.8,0-16.8,3-21,13.8L2650.3,700c-15.6,38.4-46.2,63-86.4,63c-42,0-65.4-29.4-65.4-29.4l19.2-30
		C2517.7,704.2,2536.9,726.4,2562.7,726.4z"/>
</g>
<g>
</g>
<g>
</g>
<g>
</g>
<g>
</g>
<g>
</g>
<g>
</g>
</svg>
